G04 #@! TF.GenerationSoftware,KiCad,Pcbnew,5.1.5*
G04 #@! TF.CreationDate,2020-07-04T13:20:11+02:00*
G04 #@! TF.ProjectId,GECAUF,47454341-5546-42e6-9b69-6361645f7063,1.0*
G04 #@! TF.SameCoordinates,Original*
G04 #@! TF.FileFunction,Soldermask,Bot*
G04 #@! TF.FilePolarity,Negative*
%FSLAX46Y46*%
G04 Gerber Fmt 4.6, Leading zero omitted, Abs format (unit mm)*
G04 Created by KiCad (PCBNEW 5.1.5) date 2020-07-04 13:20:11*
%MOMM*%
%LPD*%
G04 APERTURE LIST*
%ADD10C,5.500000*%
%ADD11C,1.700000*%
%ADD12R,1.700000X1.700000*%
%ADD13C,1.200000*%
%ADD14O,1.700000X1.950000*%
%ADD15C,0.100000*%
%ADD16O,1.700000X1.700000*%
%ADD17R,3.000000X3.000000*%
%ADD18C,3.000000*%
%ADD19O,2.000000X1.700000*%
%ADD20C,1.524000*%
%ADD21R,2.000000X1.450000*%
%ADD22R,1.500000X0.800000*%
G04 APERTURE END LIST*
D10*
X122300000Y-103200000D03*
X173100000Y-146300000D03*
X103200000Y-160100000D03*
D11*
X128016000Y-154548000D03*
X125476000Y-154548000D03*
X122936000Y-154548000D03*
X120396000Y-154548000D03*
X117856000Y-154548000D03*
X115316000Y-154548000D03*
X112776000Y-154548000D03*
X110236000Y-154548000D03*
X107696000Y-154548000D03*
X105156000Y-154548000D03*
X102616000Y-154548000D03*
X130556000Y-154548000D03*
X133096000Y-154548000D03*
X135636000Y-154548000D03*
X138176000Y-154548000D03*
X140716000Y-154548000D03*
X143256000Y-154548000D03*
X145796000Y-154548000D03*
D12*
X148336000Y-154548000D03*
D11*
X148336000Y-130048000D03*
X145796000Y-130048000D03*
X143256000Y-130048000D03*
X140716000Y-130048000D03*
X102616000Y-130048000D03*
X105156000Y-130048000D03*
X107696000Y-130048000D03*
X110236000Y-130048000D03*
X138176000Y-130048000D03*
X135636000Y-130048000D03*
X133096000Y-130048000D03*
X130556000Y-130048000D03*
X125476000Y-130048000D03*
X117856000Y-130048000D03*
X128016000Y-130048000D03*
X112776000Y-130048000D03*
X115316000Y-130048000D03*
X122936000Y-130048000D03*
X120396000Y-130048000D03*
D13*
X160985000Y-102000000D03*
D14*
X151885000Y-104000000D03*
X154385000Y-104000000D03*
X156885000Y-104000000D03*
D15*
G36*
X160009504Y-103026204D02*
G01*
X160033773Y-103029804D01*
X160057571Y-103035765D01*
X160080671Y-103044030D01*
X160102849Y-103054520D01*
X160123893Y-103067133D01*
X160143598Y-103081747D01*
X160161777Y-103098223D01*
X160178253Y-103116402D01*
X160192867Y-103136107D01*
X160205480Y-103157151D01*
X160215970Y-103179329D01*
X160224235Y-103202429D01*
X160230196Y-103226227D01*
X160233796Y-103250496D01*
X160235000Y-103275000D01*
X160235000Y-104725000D01*
X160233796Y-104749504D01*
X160230196Y-104773773D01*
X160224235Y-104797571D01*
X160215970Y-104820671D01*
X160205480Y-104842849D01*
X160192867Y-104863893D01*
X160178253Y-104883598D01*
X160161777Y-104901777D01*
X160143598Y-104918253D01*
X160123893Y-104932867D01*
X160102849Y-104945480D01*
X160080671Y-104955970D01*
X160057571Y-104964235D01*
X160033773Y-104970196D01*
X160009504Y-104973796D01*
X159985000Y-104975000D01*
X158785000Y-104975000D01*
X158760496Y-104973796D01*
X158736227Y-104970196D01*
X158712429Y-104964235D01*
X158689329Y-104955970D01*
X158667151Y-104945480D01*
X158646107Y-104932867D01*
X158626402Y-104918253D01*
X158608223Y-104901777D01*
X158591747Y-104883598D01*
X158577133Y-104863893D01*
X158564520Y-104842849D01*
X158554030Y-104820671D01*
X158545765Y-104797571D01*
X158539804Y-104773773D01*
X158536204Y-104749504D01*
X158535000Y-104725000D01*
X158535000Y-103275000D01*
X158536204Y-103250496D01*
X158539804Y-103226227D01*
X158545765Y-103202429D01*
X158554030Y-103179329D01*
X158564520Y-103157151D01*
X158577133Y-103136107D01*
X158591747Y-103116402D01*
X158608223Y-103098223D01*
X158626402Y-103081747D01*
X158646107Y-103067133D01*
X158667151Y-103054520D01*
X158689329Y-103044030D01*
X158712429Y-103035765D01*
X158736227Y-103029804D01*
X158760496Y-103026204D01*
X158785000Y-103025000D01*
X159985000Y-103025000D01*
X160009504Y-103026204D01*
G37*
D16*
X174244000Y-135128000D03*
X174244000Y-132588000D03*
X174244000Y-130048000D03*
D12*
X174244000Y-127508000D03*
D15*
G36*
X110001984Y-157806684D02*
G01*
X110026253Y-157810284D01*
X110050051Y-157816245D01*
X110073151Y-157824510D01*
X110095329Y-157835000D01*
X110116373Y-157847613D01*
X110136078Y-157862227D01*
X110154257Y-157878703D01*
X110170733Y-157896882D01*
X110185347Y-157916587D01*
X110197960Y-157937631D01*
X110208450Y-157959809D01*
X110216715Y-157982909D01*
X110222676Y-158006707D01*
X110226276Y-158030976D01*
X110227480Y-158055480D01*
X110227480Y-159505480D01*
X110226276Y-159529984D01*
X110222676Y-159554253D01*
X110216715Y-159578051D01*
X110208450Y-159601151D01*
X110197960Y-159623329D01*
X110185347Y-159644373D01*
X110170733Y-159664078D01*
X110154257Y-159682257D01*
X110136078Y-159698733D01*
X110116373Y-159713347D01*
X110095329Y-159725960D01*
X110073151Y-159736450D01*
X110050051Y-159744715D01*
X110026253Y-159750676D01*
X110001984Y-159754276D01*
X109977480Y-159755480D01*
X108777480Y-159755480D01*
X108752976Y-159754276D01*
X108728707Y-159750676D01*
X108704909Y-159744715D01*
X108681809Y-159736450D01*
X108659631Y-159725960D01*
X108638587Y-159713347D01*
X108618882Y-159698733D01*
X108600703Y-159682257D01*
X108584227Y-159664078D01*
X108569613Y-159644373D01*
X108557000Y-159623329D01*
X108546510Y-159601151D01*
X108538245Y-159578051D01*
X108532284Y-159554253D01*
X108528684Y-159529984D01*
X108527480Y-159505480D01*
X108527480Y-158055480D01*
X108528684Y-158030976D01*
X108532284Y-158006707D01*
X108538245Y-157982909D01*
X108546510Y-157959809D01*
X108557000Y-157937631D01*
X108569613Y-157916587D01*
X108584227Y-157896882D01*
X108600703Y-157878703D01*
X108618882Y-157862227D01*
X108638587Y-157847613D01*
X108659631Y-157835000D01*
X108681809Y-157824510D01*
X108704909Y-157816245D01*
X108728707Y-157810284D01*
X108752976Y-157806684D01*
X108777480Y-157805480D01*
X109977480Y-157805480D01*
X110001984Y-157806684D01*
G37*
D14*
X111877480Y-158780480D03*
X114377480Y-158780480D03*
D13*
X107777480Y-160780480D03*
D17*
X174625000Y-107823000D03*
D18*
X174625000Y-102743000D03*
D13*
X173577500Y-112065000D03*
D19*
X175577500Y-116165000D03*
D15*
G36*
X176352004Y-112816204D02*
G01*
X176376273Y-112819804D01*
X176400071Y-112825765D01*
X176423171Y-112834030D01*
X176445349Y-112844520D01*
X176466393Y-112857133D01*
X176486098Y-112871747D01*
X176504277Y-112888223D01*
X176520753Y-112906402D01*
X176535367Y-112926107D01*
X176547980Y-112947151D01*
X176558470Y-112969329D01*
X176566735Y-112992429D01*
X176572696Y-113016227D01*
X176576296Y-113040496D01*
X176577500Y-113065000D01*
X176577500Y-114265000D01*
X176576296Y-114289504D01*
X176572696Y-114313773D01*
X176566735Y-114337571D01*
X176558470Y-114360671D01*
X176547980Y-114382849D01*
X176535367Y-114403893D01*
X176520753Y-114423598D01*
X176504277Y-114441777D01*
X176486098Y-114458253D01*
X176466393Y-114472867D01*
X176445349Y-114485480D01*
X176423171Y-114495970D01*
X176400071Y-114504235D01*
X176376273Y-114510196D01*
X176352004Y-114513796D01*
X176327500Y-114515000D01*
X174827500Y-114515000D01*
X174802996Y-114513796D01*
X174778727Y-114510196D01*
X174754929Y-114504235D01*
X174731829Y-114495970D01*
X174709651Y-114485480D01*
X174688607Y-114472867D01*
X174668902Y-114458253D01*
X174650723Y-114441777D01*
X174634247Y-114423598D01*
X174619633Y-114403893D01*
X174607020Y-114382849D01*
X174596530Y-114360671D01*
X174588265Y-114337571D01*
X174582304Y-114313773D01*
X174578704Y-114289504D01*
X174577500Y-114265000D01*
X174577500Y-113065000D01*
X174578704Y-113040496D01*
X174582304Y-113016227D01*
X174588265Y-112992429D01*
X174596530Y-112969329D01*
X174607020Y-112947151D01*
X174619633Y-112926107D01*
X174634247Y-112906402D01*
X174650723Y-112888223D01*
X174668902Y-112871747D01*
X174688607Y-112857133D01*
X174709651Y-112844520D01*
X174731829Y-112834030D01*
X174754929Y-112825765D01*
X174778727Y-112819804D01*
X174802996Y-112816204D01*
X174827500Y-112815000D01*
X176327500Y-112815000D01*
X176352004Y-112816204D01*
G37*
G36*
X116194504Y-103026204D02*
G01*
X116218773Y-103029804D01*
X116242571Y-103035765D01*
X116265671Y-103044030D01*
X116287849Y-103054520D01*
X116308893Y-103067133D01*
X116328598Y-103081747D01*
X116346777Y-103098223D01*
X116363253Y-103116402D01*
X116377867Y-103136107D01*
X116390480Y-103157151D01*
X116400970Y-103179329D01*
X116409235Y-103202429D01*
X116415196Y-103226227D01*
X116418796Y-103250496D01*
X116420000Y-103275000D01*
X116420000Y-104725000D01*
X116418796Y-104749504D01*
X116415196Y-104773773D01*
X116409235Y-104797571D01*
X116400970Y-104820671D01*
X116390480Y-104842849D01*
X116377867Y-104863893D01*
X116363253Y-104883598D01*
X116346777Y-104901777D01*
X116328598Y-104918253D01*
X116308893Y-104932867D01*
X116287849Y-104945480D01*
X116265671Y-104955970D01*
X116242571Y-104964235D01*
X116218773Y-104970196D01*
X116194504Y-104973796D01*
X116170000Y-104975000D01*
X114970000Y-104975000D01*
X114945496Y-104973796D01*
X114921227Y-104970196D01*
X114897429Y-104964235D01*
X114874329Y-104955970D01*
X114852151Y-104945480D01*
X114831107Y-104932867D01*
X114811402Y-104918253D01*
X114793223Y-104901777D01*
X114776747Y-104883598D01*
X114762133Y-104863893D01*
X114749520Y-104842849D01*
X114739030Y-104820671D01*
X114730765Y-104797571D01*
X114724804Y-104773773D01*
X114721204Y-104749504D01*
X114720000Y-104725000D01*
X114720000Y-103275000D01*
X114721204Y-103250496D01*
X114724804Y-103226227D01*
X114730765Y-103202429D01*
X114739030Y-103179329D01*
X114749520Y-103157151D01*
X114762133Y-103136107D01*
X114776747Y-103116402D01*
X114793223Y-103098223D01*
X114811402Y-103081747D01*
X114831107Y-103067133D01*
X114852151Y-103054520D01*
X114874329Y-103044030D01*
X114897429Y-103035765D01*
X114921227Y-103029804D01*
X114945496Y-103026204D01*
X114970000Y-103025000D01*
X116170000Y-103025000D01*
X116194504Y-103026204D01*
G37*
D14*
X113070000Y-104000000D03*
X110570000Y-104000000D03*
X108070000Y-104000000D03*
D13*
X117170000Y-102000000D03*
X139014000Y-101886000D03*
D14*
X129914000Y-103886000D03*
X132414000Y-103886000D03*
X134914000Y-103886000D03*
D15*
G36*
X138038504Y-102912204D02*
G01*
X138062773Y-102915804D01*
X138086571Y-102921765D01*
X138109671Y-102930030D01*
X138131849Y-102940520D01*
X138152893Y-102953133D01*
X138172598Y-102967747D01*
X138190777Y-102984223D01*
X138207253Y-103002402D01*
X138221867Y-103022107D01*
X138234480Y-103043151D01*
X138244970Y-103065329D01*
X138253235Y-103088429D01*
X138259196Y-103112227D01*
X138262796Y-103136496D01*
X138264000Y-103161000D01*
X138264000Y-104611000D01*
X138262796Y-104635504D01*
X138259196Y-104659773D01*
X138253235Y-104683571D01*
X138244970Y-104706671D01*
X138234480Y-104728849D01*
X138221867Y-104749893D01*
X138207253Y-104769598D01*
X138190777Y-104787777D01*
X138172598Y-104804253D01*
X138152893Y-104818867D01*
X138131849Y-104831480D01*
X138109671Y-104841970D01*
X138086571Y-104850235D01*
X138062773Y-104856196D01*
X138038504Y-104859796D01*
X138014000Y-104861000D01*
X136814000Y-104861000D01*
X136789496Y-104859796D01*
X136765227Y-104856196D01*
X136741429Y-104850235D01*
X136718329Y-104841970D01*
X136696151Y-104831480D01*
X136675107Y-104818867D01*
X136655402Y-104804253D01*
X136637223Y-104787777D01*
X136620747Y-104769598D01*
X136606133Y-104749893D01*
X136593520Y-104728849D01*
X136583030Y-104706671D01*
X136574765Y-104683571D01*
X136568804Y-104659773D01*
X136565204Y-104635504D01*
X136564000Y-104611000D01*
X136564000Y-103161000D01*
X136565204Y-103136496D01*
X136568804Y-103112227D01*
X136574765Y-103088429D01*
X136583030Y-103065329D01*
X136593520Y-103043151D01*
X136606133Y-103022107D01*
X136620747Y-103002402D01*
X136637223Y-102984223D01*
X136655402Y-102967747D01*
X136675107Y-102953133D01*
X136696151Y-102940520D01*
X136718329Y-102930030D01*
X136741429Y-102921765D01*
X136765227Y-102915804D01*
X136789496Y-102912204D01*
X136814000Y-102911000D01*
X138014000Y-102911000D01*
X138038504Y-102912204D01*
G37*
D13*
X166400000Y-154146500D03*
D14*
X159800000Y-156146500D03*
X162300000Y-156146500D03*
D15*
G36*
X165424504Y-155172704D02*
G01*
X165448773Y-155176304D01*
X165472571Y-155182265D01*
X165495671Y-155190530D01*
X165517849Y-155201020D01*
X165538893Y-155213633D01*
X165558598Y-155228247D01*
X165576777Y-155244723D01*
X165593253Y-155262902D01*
X165607867Y-155282607D01*
X165620480Y-155303651D01*
X165630970Y-155325829D01*
X165639235Y-155348929D01*
X165645196Y-155372727D01*
X165648796Y-155396996D01*
X165650000Y-155421500D01*
X165650000Y-156871500D01*
X165648796Y-156896004D01*
X165645196Y-156920273D01*
X165639235Y-156944071D01*
X165630970Y-156967171D01*
X165620480Y-156989349D01*
X165607867Y-157010393D01*
X165593253Y-157030098D01*
X165576777Y-157048277D01*
X165558598Y-157064753D01*
X165538893Y-157079367D01*
X165517849Y-157091980D01*
X165495671Y-157102470D01*
X165472571Y-157110735D01*
X165448773Y-157116696D01*
X165424504Y-157120296D01*
X165400000Y-157121500D01*
X164200000Y-157121500D01*
X164175496Y-157120296D01*
X164151227Y-157116696D01*
X164127429Y-157110735D01*
X164104329Y-157102470D01*
X164082151Y-157091980D01*
X164061107Y-157079367D01*
X164041402Y-157064753D01*
X164023223Y-157048277D01*
X164006747Y-157030098D01*
X163992133Y-157010393D01*
X163979520Y-156989349D01*
X163969030Y-156967171D01*
X163960765Y-156944071D01*
X163954804Y-156920273D01*
X163951204Y-156896004D01*
X163950000Y-156871500D01*
X163950000Y-155421500D01*
X163951204Y-155396996D01*
X163954804Y-155372727D01*
X163960765Y-155348929D01*
X163969030Y-155325829D01*
X163979520Y-155303651D01*
X163992133Y-155282607D01*
X164006747Y-155262902D01*
X164023223Y-155244723D01*
X164041402Y-155228247D01*
X164061107Y-155213633D01*
X164082151Y-155201020D01*
X164104329Y-155190530D01*
X164127429Y-155182265D01*
X164151227Y-155176304D01*
X164175496Y-155172704D01*
X164200000Y-155171500D01*
X165400000Y-155171500D01*
X165424504Y-155172704D01*
G37*
G36*
X165424504Y-146092204D02*
G01*
X165448773Y-146095804D01*
X165472571Y-146101765D01*
X165495671Y-146110030D01*
X165517849Y-146120520D01*
X165538893Y-146133133D01*
X165558598Y-146147747D01*
X165576777Y-146164223D01*
X165593253Y-146182402D01*
X165607867Y-146202107D01*
X165620480Y-146223151D01*
X165630970Y-146245329D01*
X165639235Y-146268429D01*
X165645196Y-146292227D01*
X165648796Y-146316496D01*
X165650000Y-146341000D01*
X165650000Y-147791000D01*
X165648796Y-147815504D01*
X165645196Y-147839773D01*
X165639235Y-147863571D01*
X165630970Y-147886671D01*
X165620480Y-147908849D01*
X165607867Y-147929893D01*
X165593253Y-147949598D01*
X165576777Y-147967777D01*
X165558598Y-147984253D01*
X165538893Y-147998867D01*
X165517849Y-148011480D01*
X165495671Y-148021970D01*
X165472571Y-148030235D01*
X165448773Y-148036196D01*
X165424504Y-148039796D01*
X165400000Y-148041000D01*
X164200000Y-148041000D01*
X164175496Y-148039796D01*
X164151227Y-148036196D01*
X164127429Y-148030235D01*
X164104329Y-148021970D01*
X164082151Y-148011480D01*
X164061107Y-147998867D01*
X164041402Y-147984253D01*
X164023223Y-147967777D01*
X164006747Y-147949598D01*
X163992133Y-147929893D01*
X163979520Y-147908849D01*
X163969030Y-147886671D01*
X163960765Y-147863571D01*
X163954804Y-147839773D01*
X163951204Y-147815504D01*
X163950000Y-147791000D01*
X163950000Y-146341000D01*
X163951204Y-146316496D01*
X163954804Y-146292227D01*
X163960765Y-146268429D01*
X163969030Y-146245329D01*
X163979520Y-146223151D01*
X163992133Y-146202107D01*
X164006747Y-146182402D01*
X164023223Y-146164223D01*
X164041402Y-146147747D01*
X164061107Y-146133133D01*
X164082151Y-146120520D01*
X164104329Y-146110030D01*
X164127429Y-146101765D01*
X164151227Y-146095804D01*
X164175496Y-146092204D01*
X164200000Y-146091000D01*
X165400000Y-146091000D01*
X165424504Y-146092204D01*
G37*
D14*
X162300000Y-147066000D03*
X159800000Y-147066000D03*
D13*
X166400000Y-145066000D03*
X166400000Y-136176000D03*
D14*
X159800000Y-138176000D03*
X162300000Y-138176000D03*
D15*
G36*
X165424504Y-137202204D02*
G01*
X165448773Y-137205804D01*
X165472571Y-137211765D01*
X165495671Y-137220030D01*
X165517849Y-137230520D01*
X165538893Y-137243133D01*
X165558598Y-137257747D01*
X165576777Y-137274223D01*
X165593253Y-137292402D01*
X165607867Y-137312107D01*
X165620480Y-137333151D01*
X165630970Y-137355329D01*
X165639235Y-137378429D01*
X165645196Y-137402227D01*
X165648796Y-137426496D01*
X165650000Y-137451000D01*
X165650000Y-138901000D01*
X165648796Y-138925504D01*
X165645196Y-138949773D01*
X165639235Y-138973571D01*
X165630970Y-138996671D01*
X165620480Y-139018849D01*
X165607867Y-139039893D01*
X165593253Y-139059598D01*
X165576777Y-139077777D01*
X165558598Y-139094253D01*
X165538893Y-139108867D01*
X165517849Y-139121480D01*
X165495671Y-139131970D01*
X165472571Y-139140235D01*
X165448773Y-139146196D01*
X165424504Y-139149796D01*
X165400000Y-139151000D01*
X164200000Y-139151000D01*
X164175496Y-139149796D01*
X164151227Y-139146196D01*
X164127429Y-139140235D01*
X164104329Y-139131970D01*
X164082151Y-139121480D01*
X164061107Y-139108867D01*
X164041402Y-139094253D01*
X164023223Y-139077777D01*
X164006747Y-139059598D01*
X163992133Y-139039893D01*
X163979520Y-139018849D01*
X163969030Y-138996671D01*
X163960765Y-138973571D01*
X163954804Y-138949773D01*
X163951204Y-138925504D01*
X163950000Y-138901000D01*
X163950000Y-137451000D01*
X163951204Y-137426496D01*
X163954804Y-137402227D01*
X163960765Y-137378429D01*
X163969030Y-137355329D01*
X163979520Y-137333151D01*
X163992133Y-137312107D01*
X164006747Y-137292402D01*
X164023223Y-137274223D01*
X164041402Y-137257747D01*
X164061107Y-137243133D01*
X164082151Y-137230520D01*
X164104329Y-137220030D01*
X164127429Y-137211765D01*
X164151227Y-137205804D01*
X164175496Y-137202204D01*
X164200000Y-137201000D01*
X165400000Y-137201000D01*
X165424504Y-137202204D01*
G37*
D16*
X110236000Y-125984000D03*
D12*
X112776000Y-125984000D03*
D16*
X132842000Y-125984000D03*
D12*
X130302000Y-125984000D03*
X151892000Y-126111000D03*
D16*
X154432000Y-126111000D03*
D12*
X154700000Y-156972000D03*
D16*
X154700000Y-154432000D03*
D12*
X154686000Y-147828000D03*
D16*
X154686000Y-145288000D03*
X154700000Y-136398000D03*
D12*
X154700000Y-138938000D03*
D16*
X120650000Y-121900000D03*
X118110000Y-121900000D03*
X115570000Y-121900000D03*
X113030000Y-121900000D03*
X110490000Y-121900000D03*
X107950000Y-121900000D03*
X105410000Y-121900000D03*
D12*
X102870000Y-121900000D03*
D16*
X105410000Y-109100000D03*
X107950000Y-109100000D03*
X110490000Y-109100000D03*
X120650000Y-109100000D03*
X118110000Y-109100000D03*
X113030000Y-109100000D03*
D11*
X102870000Y-109100000D03*
D16*
X115570000Y-109100000D03*
X102870000Y-119360000D03*
X102870000Y-116820000D03*
X124841000Y-116820000D03*
X124841000Y-119360000D03*
X137541000Y-109100000D03*
D11*
X124841000Y-109100000D03*
D16*
X135001000Y-109100000D03*
X140081000Y-109100000D03*
X142621000Y-109100000D03*
X132461000Y-109100000D03*
X129921000Y-109100000D03*
X127381000Y-109100000D03*
D12*
X124841000Y-121900000D03*
D16*
X127381000Y-121900000D03*
X129921000Y-121900000D03*
X132461000Y-121900000D03*
X135001000Y-121900000D03*
X137541000Y-121900000D03*
X140081000Y-121900000D03*
X142621000Y-121900000D03*
X164592000Y-121900000D03*
X162052000Y-121900000D03*
X159512000Y-121900000D03*
X156972000Y-121900000D03*
X154432000Y-121900000D03*
X151892000Y-121900000D03*
X149352000Y-121900000D03*
D12*
X146812000Y-121900000D03*
D16*
X149352000Y-109100000D03*
X151892000Y-109100000D03*
X154432000Y-109100000D03*
X164592000Y-109100000D03*
X162052000Y-109100000D03*
X156972000Y-109100000D03*
D11*
X146812000Y-109100000D03*
D16*
X159512000Y-109100000D03*
X146812000Y-119360000D03*
X146812000Y-116820000D03*
D20*
X121666000Y-112141000D03*
X119126000Y-112141000D03*
X116586000Y-112141000D03*
X114046000Y-112141000D03*
X121666000Y-114681000D03*
X119126000Y-114681000D03*
X116586000Y-114681000D03*
X114046000Y-114681000D03*
X121666000Y-117221000D03*
X119126000Y-117221000D03*
X116586000Y-117221000D03*
X114046000Y-117221000D03*
X135763000Y-117094000D03*
X138303000Y-117094000D03*
X140843000Y-117094000D03*
X143383000Y-117094000D03*
X135763000Y-114554000D03*
X138303000Y-114554000D03*
X140843000Y-114554000D03*
X143383000Y-114554000D03*
X135763000Y-112014000D03*
X138303000Y-112014000D03*
X140843000Y-112014000D03*
X143383000Y-112014000D03*
X165100000Y-112014000D03*
X162560000Y-112014000D03*
X160020000Y-112014000D03*
X157480000Y-112014000D03*
X165100000Y-114554000D03*
X162560000Y-114554000D03*
X160020000Y-114554000D03*
X157480000Y-114554000D03*
X165100000Y-117094000D03*
X162560000Y-117094000D03*
X160020000Y-117094000D03*
X157480000Y-117094000D03*
D21*
X112014000Y-135619000D03*
X112014000Y-149369000D03*
X103714000Y-149369000D03*
X103714000Y-135619000D03*
D22*
X109414000Y-137999000D03*
X109414000Y-139099000D03*
X109414000Y-140199000D03*
X109414000Y-141299000D03*
X109414000Y-142399000D03*
X109414000Y-143499000D03*
X109414000Y-144599000D03*
X109414000Y-145699000D03*
D12*
X130556000Y-160274000D03*
D16*
X130556000Y-157734000D03*
X133096000Y-160274000D03*
X133096000Y-157734000D03*
X135636000Y-160274000D03*
X135636000Y-157734000D03*
X138176000Y-160274000D03*
X138176000Y-157734000D03*
X140716000Y-160274000D03*
X140716000Y-157734000D03*
M02*
