M48
; DRILL file {KiCad 5.1.5} date Sat 04 Jul 2020 01:20:05 PM CEST
; FORMAT={-:-/ absolute / inch / decimal}
; #@! TF.CreationDate,2020-07-04T13:20:05+02:00
; #@! TF.GenerationSoftware,Kicad,Pcbnew,5.1.5
; #@! TF.FileFunction,Plated,1,2,PTH
FMAT,2
INCH
T1C0.0157
T2C0.0300
T3C0.0374
T4C0.0394
T5C0.0598
T6C0.1260
%
G90
G05
T1
X4.05Y-5.77
X4.15Y-5.67
X4.47Y-5.82
X4.4932Y-6.3544
X4.55Y-5.8534
X4.58Y-5.32
X4.61Y-5.36
X4.638Y-5.444
X4.647Y-6.2346
X4.84Y-4.79
X4.865Y-5.905
X4.87Y-5.36
X4.91Y-5.87
X4.97Y-4.88
X5.0Y-5.69
X5.0Y-5.85
X5.02Y-5.6
X5.045Y-4.7
X5.06Y-5.6
X5.1Y-5.6
X5.295Y-4.88
X5.37Y-5.45
X5.46Y-4.88
X5.63Y-5.43
X5.695Y-4.8
X5.7378Y-4.4672
X5.74Y-4.94
X5.89Y-6.27
X5.915Y-5.07
X5.98Y-5.22
X6.09Y-5.245
X6.1Y-5.1
X6.3Y-5.19
X6.47Y-5.14
X6.49Y-5.23
X6.935Y-5.59
T2
X4.49Y-4.415
X4.49Y-4.515
X4.49Y-4.615
X4.59Y-4.415
X4.59Y-4.515
X4.59Y-4.615
X4.69Y-4.415
X4.69Y-4.515
X4.69Y-4.615
X4.79Y-4.415
X4.79Y-4.515
X4.79Y-4.615
X5.345Y-4.41
X5.345Y-4.51
X5.345Y-4.61
X5.445Y-4.41
X5.445Y-4.51
X5.445Y-4.61
X5.545Y-4.41
X5.545Y-4.51
X5.545Y-4.61
X5.645Y-4.41
X5.645Y-4.51
X5.645Y-4.61
X6.2Y-4.41
X6.2Y-4.51
X6.2Y-4.61
X6.3Y-4.41
X6.3Y-4.51
X6.3Y-4.61
X6.4Y-4.41
X6.4Y-4.51
X6.4Y-4.61
X6.5Y-4.41
X6.5Y-4.51
X6.5Y-4.61
T3
X6.2913Y-5.79
X6.3898Y-5.79
X6.4882Y-5.79
X6.2913Y-5.44
X6.3898Y-5.44
X6.4882Y-5.44
X5.9797Y-4.0945
X6.0781Y-4.0945
X6.1766Y-4.0945
X6.275Y-4.0945
X5.1147Y-4.09
X5.2131Y-4.09
X5.3116Y-4.09
X5.41Y-4.09
X4.2547Y-4.0945
X4.3531Y-4.0945
X4.4516Y-4.0945
X4.55Y-4.0945
X6.2913Y-6.1475
X6.3898Y-6.1475
X6.4882Y-6.1475
X4.3062Y-6.2512
X4.4046Y-6.2512
X4.5031Y-6.2512
T4
X6.86Y-5.02
X6.86Y-5.12
X6.86Y-5.22
X6.86Y-5.32
X5.78Y-4.2953
X5.78Y-4.5992
X5.78Y-4.6992
X5.78Y-4.7992
X5.88Y-4.2953
X5.88Y-4.7992
X5.98Y-4.2953
X5.98Y-4.7992
X6.08Y-4.2953
X6.08Y-4.7992
X6.18Y-4.2953
X6.18Y-4.7992
X6.28Y-4.2953
X6.28Y-4.7992
X6.38Y-4.2953
X6.38Y-4.7992
X6.48Y-4.2953
X6.48Y-4.7992
X6.09Y-5.72
X6.09Y-5.82
X4.05Y-4.2953
X4.05Y-4.5992
X4.05Y-4.6992
X4.05Y-4.7992
X4.15Y-4.2953
X4.15Y-4.7992
X4.25Y-4.2953
X4.25Y-4.7992
X4.35Y-4.2953
X4.35Y-4.7992
X4.45Y-4.2953
X4.45Y-4.7992
X4.55Y-4.2953
X4.55Y-4.7992
X4.65Y-4.2953
X4.65Y-4.7992
X4.75Y-4.2953
X4.75Y-4.7992
X6.0906Y-5.37
X6.0906Y-5.47
X5.13Y-4.96
X5.23Y-4.96
X4.04Y-5.12
X4.04Y-6.0846
X4.14Y-5.12
X4.14Y-6.0846
X4.24Y-5.12
X4.24Y-6.0846
X4.34Y-5.12
X4.34Y-6.0846
X4.44Y-5.12
X4.44Y-6.0846
X4.54Y-5.12
X4.54Y-6.0846
X4.64Y-5.12
X4.64Y-6.0846
X4.74Y-5.12
X4.74Y-6.0846
X4.84Y-5.12
X4.84Y-6.0846
X4.94Y-5.12
X4.94Y-6.0846
X5.04Y-5.12
X5.04Y-6.0846
X5.14Y-5.12
X5.14Y-6.0846
X5.24Y-5.12
X5.24Y-6.0846
X5.34Y-5.12
X5.34Y-6.0846
X5.44Y-5.12
X5.44Y-6.0846
X5.54Y-5.12
X5.54Y-6.0846
X5.64Y-5.12
X5.64Y-6.0846
X5.74Y-5.12
X5.74Y-6.0846
X5.84Y-5.12
X5.84Y-6.0846
X5.14Y-6.21
X5.14Y-6.31
X5.24Y-6.21
X5.24Y-6.31
X5.34Y-6.21
X5.34Y-6.31
X5.44Y-6.21
X5.44Y-6.31
X5.54Y-6.21
X5.54Y-6.31
X6.0906Y-6.08
X6.0906Y-6.18
X4.915Y-4.2953
X4.915Y-4.5992
X4.915Y-4.6992
X4.915Y-4.7992
X5.015Y-4.2953
X5.015Y-4.7992
X5.115Y-4.2953
X5.115Y-4.7992
X5.215Y-4.2953
X5.215Y-4.7992
X5.315Y-4.2953
X5.315Y-4.7992
X5.415Y-4.2953
X5.415Y-4.7992
X5.515Y-4.2953
X5.515Y-4.7992
X5.615Y-4.2953
X5.615Y-4.7992
X4.34Y-4.96
X4.44Y-4.96
X5.98Y-4.965
X6.08Y-4.965
X6.9125Y-4.475
X6.9125Y-4.5734
T5
X6.875Y-4.045
X6.875Y-4.245
T6
X4.815Y-4.063
X4.063Y-6.3031
X6.815Y-5.7598
T0
M30
