G04 #@! TF.GenerationSoftware,KiCad,Pcbnew,5.1.5*
G04 #@! TF.CreationDate,2020-07-04T13:20:11+02:00*
G04 #@! TF.ProjectId,GECAUF,47454341-5546-42e6-9b69-6361645f7063,1.0*
G04 #@! TF.SameCoordinates,Original*
G04 #@! TF.FileFunction,Legend,Top*
G04 #@! TF.FilePolarity,Positive*
%FSLAX46Y46*%
G04 Gerber Fmt 4.6, Leading zero omitted, Abs format (unit mm)*
G04 Created by KiCad (PCBNEW 5.1.5) date 2020-07-04 13:20:11*
%MOMM*%
%LPD*%
G04 APERTURE LIST*
%ADD10C,0.150000*%
%ADD11C,0.300000*%
%ADD12C,0.120000*%
%ADD13C,0.127000*%
%ADD14C,0.200000*%
%ADD15C,0.080000*%
G04 APERTURE END LIST*
D10*
X150332440Y-149128480D02*
X150332440Y-136154160D01*
X144622520Y-149128480D02*
X150332440Y-149128480D01*
X144622520Y-136088120D02*
X144622520Y-149128480D01*
X150230840Y-136088120D02*
X144622520Y-136088120D01*
X149536040Y-137831444D02*
X149583659Y-137736206D01*
X149583659Y-137593349D01*
X149536040Y-137450492D01*
X149440801Y-137355254D01*
X149345563Y-137307635D01*
X149155087Y-137260016D01*
X149012230Y-137260016D01*
X148821754Y-137307635D01*
X148726516Y-137355254D01*
X148631278Y-137450492D01*
X148583659Y-137593349D01*
X148583659Y-137688587D01*
X148631278Y-137831444D01*
X148678897Y-137879063D01*
X149012230Y-137879063D01*
X149012230Y-137688587D01*
X149107468Y-138307635D02*
X149107468Y-138640968D01*
X148583659Y-138783825D02*
X148583659Y-138307635D01*
X149583659Y-138307635D01*
X149583659Y-138783825D01*
X148678897Y-139783825D02*
X148631278Y-139736206D01*
X148583659Y-139593349D01*
X148583659Y-139498111D01*
X148631278Y-139355254D01*
X148726516Y-139260016D01*
X148821754Y-139212397D01*
X149012230Y-139164778D01*
X149155087Y-139164778D01*
X149345563Y-139212397D01*
X149440801Y-139260016D01*
X149536040Y-139355254D01*
X149583659Y-139498111D01*
X149583659Y-139593349D01*
X149536040Y-139736206D01*
X149488420Y-139783825D01*
X148869373Y-140164778D02*
X148869373Y-140640968D01*
X148583659Y-140069540D02*
X149583659Y-140402873D01*
X148583659Y-140736206D01*
X149583659Y-141069540D02*
X148774135Y-141069540D01*
X148678897Y-141117159D01*
X148631278Y-141164778D01*
X148583659Y-141260016D01*
X148583659Y-141450492D01*
X148631278Y-141545730D01*
X148678897Y-141593349D01*
X148774135Y-141640968D01*
X149583659Y-141640968D01*
X149107468Y-142450492D02*
X149107468Y-142117159D01*
X148583659Y-142117159D02*
X149583659Y-142117159D01*
X149583659Y-142593349D01*
X146933659Y-137307635D02*
X147933659Y-137307635D01*
X146933659Y-137879063D01*
X147933659Y-137879063D01*
X146933659Y-138355254D02*
X147600325Y-138355254D01*
X147933659Y-138355254D02*
X147886040Y-138307635D01*
X147838420Y-138355254D01*
X147886040Y-138402873D01*
X147933659Y-138355254D01*
X147838420Y-138355254D01*
X146933659Y-138831444D02*
X147933659Y-138831444D01*
X147314611Y-138926682D02*
X146933659Y-139212397D01*
X147600325Y-139212397D02*
X147219373Y-138831444D01*
X146933659Y-139783825D02*
X146981278Y-139688587D01*
X147028897Y-139640968D01*
X147124135Y-139593349D01*
X147409849Y-139593349D01*
X147505087Y-139640968D01*
X147552706Y-139688587D01*
X147600325Y-139783825D01*
X147600325Y-139926682D01*
X147552706Y-140021920D01*
X147505087Y-140069540D01*
X147409849Y-140117159D01*
X147124135Y-140117159D01*
X147028897Y-140069540D01*
X146981278Y-140021920D01*
X146933659Y-139926682D01*
X146933659Y-139783825D01*
X146933659Y-140688587D02*
X146981278Y-140593349D01*
X147076516Y-140545730D01*
X147933659Y-140545730D01*
X146933659Y-141498111D02*
X147457468Y-141498111D01*
X147552706Y-141450492D01*
X147600325Y-141355254D01*
X147600325Y-141164778D01*
X147552706Y-141069540D01*
X146981278Y-141498111D02*
X146933659Y-141402873D01*
X146933659Y-141164778D01*
X146981278Y-141069540D01*
X147076516Y-141021920D01*
X147171754Y-141021920D01*
X147266992Y-141069540D01*
X147314611Y-141164778D01*
X147314611Y-141402873D01*
X147362230Y-141498111D01*
X147600325Y-141879063D02*
X146933659Y-142117159D01*
X147600325Y-142355254D02*
X146933659Y-142117159D01*
X146695563Y-142021920D01*
X146647944Y-141974301D01*
X146600325Y-141879063D01*
X147933659Y-143355254D02*
X147933659Y-143926682D01*
X146933659Y-143640968D02*
X147933659Y-143640968D01*
X146981278Y-144212397D02*
X146933659Y-144307635D01*
X146933659Y-144498111D01*
X146981278Y-144593349D01*
X147076516Y-144640968D01*
X147124135Y-144640968D01*
X147219373Y-144593349D01*
X147266992Y-144498111D01*
X147266992Y-144355254D01*
X147314611Y-144260016D01*
X147409849Y-144212397D01*
X147457468Y-144212397D01*
X147552706Y-144260016D01*
X147600325Y-144355254D01*
X147600325Y-144498111D01*
X147552706Y-144593349D01*
X146933659Y-145498111D02*
X147457468Y-145498111D01*
X147552706Y-145450492D01*
X147600325Y-145355254D01*
X147600325Y-145164778D01*
X147552706Y-145069540D01*
X146981278Y-145498111D02*
X146933659Y-145402873D01*
X146933659Y-145164778D01*
X146981278Y-145069540D01*
X147076516Y-145021920D01*
X147171754Y-145021920D01*
X147266992Y-145069540D01*
X147314611Y-145164778D01*
X147314611Y-145402873D01*
X147362230Y-145498111D01*
X147600325Y-145974301D02*
X146933659Y-145974301D01*
X147505087Y-145974301D02*
X147552706Y-146021920D01*
X147600325Y-146117159D01*
X147600325Y-146260016D01*
X147552706Y-146355254D01*
X147457468Y-146402873D01*
X146933659Y-146402873D01*
X146933659Y-147021920D02*
X146981278Y-146926682D01*
X147028897Y-146879063D01*
X147124135Y-146831444D01*
X147409849Y-146831444D01*
X147505087Y-146879063D01*
X147552706Y-146926682D01*
X147600325Y-147021920D01*
X147600325Y-147164778D01*
X147552706Y-147260016D01*
X147505087Y-147307635D01*
X147409849Y-147355254D01*
X147124135Y-147355254D01*
X147028897Y-147307635D01*
X146981278Y-147260016D01*
X146933659Y-147164778D01*
X146933659Y-147021920D01*
X147600325Y-147688587D02*
X146933659Y-147926682D01*
X147600325Y-148164778D01*
X145283659Y-137307635D02*
X145950325Y-137307635D01*
X145759849Y-137307635D02*
X145855087Y-137355254D01*
X145902706Y-137402873D01*
X145950325Y-137498111D01*
X145950325Y-137593349D01*
X145331278Y-138307635D02*
X145283659Y-138212397D01*
X145283659Y-138021920D01*
X145331278Y-137926682D01*
X145426516Y-137879063D01*
X145807468Y-137879063D01*
X145902706Y-137926682D01*
X145950325Y-138021920D01*
X145950325Y-138212397D01*
X145902706Y-138307635D01*
X145807468Y-138355254D01*
X145712230Y-138355254D01*
X145616992Y-137879063D01*
X145950325Y-138688587D02*
X145283659Y-138926682D01*
X145950325Y-139164778D01*
X145283659Y-140831444D02*
X145283659Y-140260016D01*
X145283659Y-140545730D02*
X146283659Y-140545730D01*
X146140801Y-140450492D01*
X146045563Y-140355254D01*
X145997944Y-140260016D01*
X145378897Y-141260016D02*
X145331278Y-141307635D01*
X145283659Y-141260016D01*
X145331278Y-141212397D01*
X145378897Y-141260016D01*
X145283659Y-141260016D01*
X146283659Y-141926682D02*
X146283659Y-142021920D01*
X146236040Y-142117159D01*
X146188420Y-142164778D01*
X146093182Y-142212397D01*
X145902706Y-142260016D01*
X145664611Y-142260016D01*
X145474135Y-142212397D01*
X145378897Y-142164778D01*
X145331278Y-142117159D01*
X145283659Y-142021920D01*
X145283659Y-141926682D01*
X145331278Y-141831444D01*
X145378897Y-141783825D01*
X145474135Y-141736206D01*
X145664611Y-141688587D01*
X145902706Y-141688587D01*
X146093182Y-141736206D01*
X146188420Y-141783825D01*
X146236040Y-141831444D01*
X146283659Y-141926682D01*
X102043900Y-126007690D02*
X102043900Y-125102928D01*
X102887471Y-125769595D02*
X102887471Y-125436261D01*
X103411280Y-125293404D02*
X103411280Y-125769595D01*
X102411280Y-125769595D01*
X102411280Y-125293404D01*
X102043900Y-125102928D02*
X102043900Y-124055309D01*
X103411280Y-124864833D02*
X102411280Y-124864833D01*
X103411280Y-124293404D01*
X102411280Y-124293404D01*
X146392300Y-126007690D02*
X146392300Y-125102928D01*
X147235871Y-125769595D02*
X147235871Y-125436261D01*
X147759680Y-125293404D02*
X147759680Y-125769595D01*
X146759680Y-125769595D01*
X146759680Y-125293404D01*
X146392300Y-125102928D02*
X146392300Y-124055309D01*
X147759680Y-124864833D02*
X146759680Y-124864833D01*
X147759680Y-124293404D01*
X146759680Y-124293404D01*
X169900695Y-127211200D02*
X169805457Y-127163580D01*
X169662600Y-127163580D01*
X169519742Y-127211200D01*
X169424504Y-127306438D01*
X169376885Y-127401676D01*
X169329266Y-127592152D01*
X169329266Y-127735009D01*
X169376885Y-127925485D01*
X169424504Y-128020723D01*
X169519742Y-128115961D01*
X169662600Y-128163580D01*
X169757838Y-128163580D01*
X169900695Y-128115961D01*
X169948314Y-128068342D01*
X169948314Y-127735009D01*
X169757838Y-127735009D01*
X170376885Y-128163580D02*
X170376885Y-127163580D01*
X170948314Y-128163580D01*
X170948314Y-127163580D01*
X171424504Y-128163580D02*
X171424504Y-127163580D01*
X171662600Y-127163580D01*
X171805457Y-127211200D01*
X171900695Y-127306438D01*
X171948314Y-127401676D01*
X171995933Y-127592152D01*
X171995933Y-127735009D01*
X171948314Y-127925485D01*
X171900695Y-128020723D01*
X171805457Y-128115961D01*
X171662600Y-128163580D01*
X171424504Y-128163580D01*
X171105533Y-135808980D02*
X170772200Y-135332790D01*
X170534104Y-135808980D02*
X170534104Y-134808980D01*
X170915057Y-134808980D01*
X171010295Y-134856600D01*
X171057914Y-134904219D01*
X171105533Y-134999457D01*
X171105533Y-135142314D01*
X171057914Y-135237552D01*
X171010295Y-135285171D01*
X170915057Y-135332790D01*
X170534104Y-135332790D01*
X171438866Y-134808980D02*
X172105533Y-135808980D01*
X172105533Y-134808980D02*
X171438866Y-135808980D01*
X170332495Y-132167380D02*
X170903923Y-132167380D01*
X170618209Y-133167380D02*
X170618209Y-132167380D01*
X171142019Y-132167380D02*
X171808685Y-133167380D01*
X171808685Y-132167380D02*
X171142019Y-133167380D01*
X169576904Y-129551180D02*
X170195952Y-129551180D01*
X169862619Y-129932133D01*
X170005476Y-129932133D01*
X170100714Y-129979752D01*
X170148333Y-130027371D01*
X170195952Y-130122609D01*
X170195952Y-130360704D01*
X170148333Y-130455942D01*
X170100714Y-130503561D01*
X170005476Y-130551180D01*
X169719761Y-130551180D01*
X169624523Y-130503561D01*
X169576904Y-130455942D01*
X170481666Y-129551180D02*
X170815000Y-130551180D01*
X171148333Y-129551180D01*
X171386428Y-129551180D02*
X172005476Y-129551180D01*
X171672142Y-129932133D01*
X171815000Y-129932133D01*
X171910238Y-129979752D01*
X171957857Y-130027371D01*
X172005476Y-130122609D01*
X172005476Y-130360704D01*
X171957857Y-130455942D01*
X171910238Y-130503561D01*
X171815000Y-130551180D01*
X171529285Y-130551180D01*
X171434047Y-130503561D01*
X171386428Y-130455942D01*
D11*
X170541142Y-117665428D02*
X170541142Y-116522571D01*
X169989571Y-112438642D02*
X171132428Y-112438642D01*
X170561000Y-113010071D02*
X170561000Y-111867214D01*
D10*
X169140214Y-101600142D02*
X169140214Y-103885857D01*
X168084642Y-108672285D02*
X170370357Y-108672285D01*
X169227500Y-109815142D02*
X169227500Y-107529428D01*
D12*
X170316148Y-121514800D02*
X170838652Y-121514800D01*
X170316148Y-122934800D02*
X170838652Y-122934800D01*
X162235000Y-106750000D02*
X162235000Y-105500000D01*
X160985000Y-106750000D02*
X162235000Y-106750000D01*
X150085000Y-101250000D02*
X155635000Y-101250000D01*
X150085000Y-104200000D02*
X150085000Y-101250000D01*
X149335000Y-104200000D02*
X150085000Y-104200000D01*
X155635000Y-101250000D02*
X160125000Y-101250000D01*
X161185000Y-104200000D02*
X161185000Y-102860000D01*
X161935000Y-104200000D02*
X161185000Y-104200000D01*
X149335000Y-106450000D02*
X151135000Y-106450000D01*
X149335000Y-105700000D02*
X149335000Y-106450000D01*
X151135000Y-105700000D02*
X149335000Y-105700000D01*
X151135000Y-106450000D02*
X151135000Y-105700000D01*
X160135000Y-106450000D02*
X161935000Y-106450000D01*
X160135000Y-105700000D02*
X160135000Y-106450000D01*
X161935000Y-105700000D02*
X160135000Y-105700000D01*
X161935000Y-106450000D02*
X161935000Y-105700000D01*
X152635000Y-106450000D02*
X158635000Y-106450000D01*
X152635000Y-105700000D02*
X152635000Y-106450000D01*
X158635000Y-105700000D02*
X152635000Y-105700000D01*
X158635000Y-106450000D02*
X158635000Y-105700000D01*
X149325000Y-106460000D02*
X161945000Y-106460000D01*
X149325000Y-100490000D02*
X149325000Y-106460000D01*
X161945000Y-100490000D02*
X149325000Y-100490000D01*
X161945000Y-106460000D02*
X161945000Y-100490000D01*
X124175436Y-141711000D02*
X125379564Y-141711000D01*
X124175436Y-143531000D02*
X125379564Y-143531000D01*
X111352500Y-145164564D02*
X111352500Y-143960436D01*
X114072500Y-145164564D02*
X114072500Y-143960436D01*
X155208000Y-118218000D02*
X155208000Y-115868000D01*
X155208000Y-111398000D02*
X155208000Y-113748000D01*
X149452437Y-111398000D02*
X155208000Y-111398000D01*
X149452437Y-118218000D02*
X155208000Y-118218000D01*
X148388000Y-117153563D02*
X148388000Y-115868000D01*
X148388000Y-112462437D02*
X148388000Y-113748000D01*
X148388000Y-112462437D02*
X149452437Y-111398000D01*
X148388000Y-117153563D02*
X149452437Y-118218000D01*
X147360500Y-112960500D02*
X148148000Y-112960500D01*
X147754250Y-112566750D02*
X147754250Y-113354250D01*
X126037250Y-112566750D02*
X126037250Y-113354250D01*
X125643500Y-112960500D02*
X126431000Y-112960500D01*
X126671000Y-117153563D02*
X127735437Y-118218000D01*
X126671000Y-112462437D02*
X127735437Y-111398000D01*
X126671000Y-112462437D02*
X126671000Y-113748000D01*
X126671000Y-117153563D02*
X126671000Y-115868000D01*
X127735437Y-118218000D02*
X133491000Y-118218000D01*
X127735437Y-111398000D02*
X133491000Y-111398000D01*
X133491000Y-111398000D02*
X133491000Y-113748000D01*
X133491000Y-118218000D02*
X133491000Y-115868000D01*
X111708000Y-118218000D02*
X111708000Y-115868000D01*
X111708000Y-111398000D02*
X111708000Y-113748000D01*
X105952437Y-111398000D02*
X111708000Y-111398000D01*
X105952437Y-118218000D02*
X111708000Y-118218000D01*
X104888000Y-117153563D02*
X104888000Y-115868000D01*
X104888000Y-112462437D02*
X104888000Y-113748000D01*
X104888000Y-112462437D02*
X105952437Y-111398000D01*
X104888000Y-117153563D02*
X105952437Y-118218000D01*
X103860500Y-112960500D02*
X104648000Y-112960500D01*
X104254250Y-112566750D02*
X104254250Y-113354250D01*
X103912000Y-138505000D02*
X103912000Y-132005000D01*
X103912000Y-138505000D02*
X112312000Y-138505000D01*
X103912000Y-132005000D02*
X112312000Y-132005000D01*
X173418700Y-123010600D02*
X175703700Y-123010600D01*
X175703700Y-123010600D02*
X175703700Y-121540600D01*
X175703700Y-121540600D02*
X173418700Y-121540600D01*
X172914000Y-126178000D02*
X174244000Y-126178000D01*
X172914000Y-127508000D02*
X172914000Y-126178000D01*
X172914000Y-128778000D02*
X175574000Y-128778000D01*
X175574000Y-128778000D02*
X175574000Y-136458000D01*
X172914000Y-128778000D02*
X172914000Y-136458000D01*
X172914000Y-136458000D02*
X175574000Y-136458000D01*
X106817480Y-156320480D02*
X106817480Y-162290480D01*
X106817480Y-162290480D02*
X116937480Y-162290480D01*
X116937480Y-162290480D02*
X116937480Y-156320480D01*
X116937480Y-156320480D02*
X106817480Y-156320480D01*
X110127480Y-156330480D02*
X110127480Y-157080480D01*
X110127480Y-157080480D02*
X113627480Y-157080480D01*
X113627480Y-157080480D02*
X113627480Y-156330480D01*
X113627480Y-156330480D02*
X110127480Y-156330480D01*
X106827480Y-156330480D02*
X106827480Y-157080480D01*
X106827480Y-157080480D02*
X108627480Y-157080480D01*
X108627480Y-157080480D02*
X108627480Y-156330480D01*
X108627480Y-156330480D02*
X106827480Y-156330480D01*
X115127480Y-156330480D02*
X115127480Y-157080480D01*
X115127480Y-157080480D02*
X116927480Y-157080480D01*
X116927480Y-157080480D02*
X116927480Y-156330480D01*
X116927480Y-156330480D02*
X115127480Y-156330480D01*
X106827480Y-158580480D02*
X107577480Y-158580480D01*
X107577480Y-158580480D02*
X107577480Y-159920480D01*
X111877480Y-161530480D02*
X108637480Y-161530480D01*
X116927480Y-158580480D02*
X116177480Y-158580480D01*
X116177480Y-158580480D02*
X116177480Y-161530480D01*
X116177480Y-161530480D02*
X111877480Y-161530480D01*
X107777480Y-156030480D02*
X106527480Y-156030480D01*
X106527480Y-156030480D02*
X106527480Y-157280480D01*
X177165000Y-100203000D02*
X177165000Y-110363000D01*
X178435000Y-100203000D02*
X170815000Y-100203000D01*
X170815000Y-100203000D02*
X170815000Y-110363000D01*
X170815000Y-110363000D02*
X178435000Y-110363000D01*
X178435000Y-110363000D02*
X178435000Y-100203000D01*
X178327500Y-110815000D02*
X177077500Y-110815000D01*
X178327500Y-112065000D02*
X178327500Y-110815000D01*
X172827500Y-117965000D02*
X172827500Y-114915000D01*
X175777500Y-117965000D02*
X172827500Y-117965000D01*
X175777500Y-118715000D02*
X175777500Y-117965000D01*
X172827500Y-114915000D02*
X172827500Y-112925000D01*
X175777500Y-111865000D02*
X174437500Y-111865000D01*
X175777500Y-111115000D02*
X175777500Y-111865000D01*
X178027500Y-118715000D02*
X178027500Y-116915000D01*
X177277500Y-118715000D02*
X178027500Y-118715000D01*
X177277500Y-116915000D02*
X177277500Y-118715000D01*
X178027500Y-116915000D02*
X177277500Y-116915000D01*
X178027500Y-112915000D02*
X178027500Y-111115000D01*
X177277500Y-112915000D02*
X178027500Y-112915000D01*
X177277500Y-111115000D02*
X177277500Y-112915000D01*
X178027500Y-111115000D02*
X177277500Y-111115000D01*
X178027500Y-115415000D02*
X178027500Y-114415000D01*
X177277500Y-115415000D02*
X178027500Y-115415000D01*
X177277500Y-114415000D02*
X177277500Y-115415000D01*
X178027500Y-114415000D02*
X177277500Y-114415000D01*
X178037500Y-118725000D02*
X178037500Y-111105000D01*
X172067500Y-118725000D02*
X178037500Y-118725000D01*
X172067500Y-111105000D02*
X172067500Y-118725000D01*
X178037500Y-111105000D02*
X172067500Y-111105000D01*
X118130000Y-106460000D02*
X118130000Y-100490000D01*
X118130000Y-100490000D02*
X105510000Y-100490000D01*
X105510000Y-100490000D02*
X105510000Y-106460000D01*
X105510000Y-106460000D02*
X118130000Y-106460000D01*
X114820000Y-106450000D02*
X114820000Y-105700000D01*
X114820000Y-105700000D02*
X108820000Y-105700000D01*
X108820000Y-105700000D02*
X108820000Y-106450000D01*
X108820000Y-106450000D02*
X114820000Y-106450000D01*
X118120000Y-106450000D02*
X118120000Y-105700000D01*
X118120000Y-105700000D02*
X116320000Y-105700000D01*
X116320000Y-105700000D02*
X116320000Y-106450000D01*
X116320000Y-106450000D02*
X118120000Y-106450000D01*
X107320000Y-106450000D02*
X107320000Y-105700000D01*
X107320000Y-105700000D02*
X105520000Y-105700000D01*
X105520000Y-105700000D02*
X105520000Y-106450000D01*
X105520000Y-106450000D02*
X107320000Y-106450000D01*
X118120000Y-104200000D02*
X117370000Y-104200000D01*
X117370000Y-104200000D02*
X117370000Y-102860000D01*
X111820000Y-101250000D02*
X116310000Y-101250000D01*
X105520000Y-104200000D02*
X106270000Y-104200000D01*
X106270000Y-104200000D02*
X106270000Y-101250000D01*
X106270000Y-101250000D02*
X111820000Y-101250000D01*
X117170000Y-106750000D02*
X118420000Y-106750000D01*
X118420000Y-106750000D02*
X118420000Y-105500000D01*
X140264000Y-106636000D02*
X140264000Y-105386000D01*
X139014000Y-106636000D02*
X140264000Y-106636000D01*
X128114000Y-101136000D02*
X133664000Y-101136000D01*
X128114000Y-104086000D02*
X128114000Y-101136000D01*
X127364000Y-104086000D02*
X128114000Y-104086000D01*
X133664000Y-101136000D02*
X138154000Y-101136000D01*
X139214000Y-104086000D02*
X139214000Y-102746000D01*
X139964000Y-104086000D02*
X139214000Y-104086000D01*
X127364000Y-106336000D02*
X129164000Y-106336000D01*
X127364000Y-105586000D02*
X127364000Y-106336000D01*
X129164000Y-105586000D02*
X127364000Y-105586000D01*
X129164000Y-106336000D02*
X129164000Y-105586000D01*
X138164000Y-106336000D02*
X139964000Y-106336000D01*
X138164000Y-105586000D02*
X138164000Y-106336000D01*
X139964000Y-105586000D02*
X138164000Y-105586000D01*
X139964000Y-106336000D02*
X139964000Y-105586000D01*
X130664000Y-106336000D02*
X136664000Y-106336000D01*
X130664000Y-105586000D02*
X130664000Y-106336000D01*
X136664000Y-105586000D02*
X130664000Y-105586000D01*
X136664000Y-106336000D02*
X136664000Y-105586000D01*
X127354000Y-106346000D02*
X139974000Y-106346000D01*
X127354000Y-100376000D02*
X127354000Y-106346000D01*
X139974000Y-100376000D02*
X127354000Y-100376000D01*
X139974000Y-106346000D02*
X139974000Y-100376000D01*
X167650000Y-158896500D02*
X167650000Y-157646500D01*
X166400000Y-158896500D02*
X167650000Y-158896500D01*
X158000000Y-153396500D02*
X162300000Y-153396500D01*
X158000000Y-156346500D02*
X158000000Y-153396500D01*
X157250000Y-156346500D02*
X158000000Y-156346500D01*
X162300000Y-153396500D02*
X165540000Y-153396500D01*
X166600000Y-156346500D02*
X166600000Y-155006500D01*
X167350000Y-156346500D02*
X166600000Y-156346500D01*
X157250000Y-158596500D02*
X159050000Y-158596500D01*
X157250000Y-157846500D02*
X157250000Y-158596500D01*
X159050000Y-157846500D02*
X157250000Y-157846500D01*
X159050000Y-158596500D02*
X159050000Y-157846500D01*
X165550000Y-158596500D02*
X167350000Y-158596500D01*
X165550000Y-157846500D02*
X165550000Y-158596500D01*
X167350000Y-157846500D02*
X165550000Y-157846500D01*
X167350000Y-158596500D02*
X167350000Y-157846500D01*
X160550000Y-158596500D02*
X164050000Y-158596500D01*
X160550000Y-157846500D02*
X160550000Y-158596500D01*
X164050000Y-157846500D02*
X160550000Y-157846500D01*
X164050000Y-158596500D02*
X164050000Y-157846500D01*
X157240000Y-158606500D02*
X167360000Y-158606500D01*
X157240000Y-152636500D02*
X157240000Y-158606500D01*
X167360000Y-152636500D02*
X157240000Y-152636500D01*
X167360000Y-158606500D02*
X167360000Y-152636500D01*
X167360000Y-149526000D02*
X167360000Y-143556000D01*
X167360000Y-143556000D02*
X157240000Y-143556000D01*
X157240000Y-143556000D02*
X157240000Y-149526000D01*
X157240000Y-149526000D02*
X167360000Y-149526000D01*
X164050000Y-149516000D02*
X164050000Y-148766000D01*
X164050000Y-148766000D02*
X160550000Y-148766000D01*
X160550000Y-148766000D02*
X160550000Y-149516000D01*
X160550000Y-149516000D02*
X164050000Y-149516000D01*
X167350000Y-149516000D02*
X167350000Y-148766000D01*
X167350000Y-148766000D02*
X165550000Y-148766000D01*
X165550000Y-148766000D02*
X165550000Y-149516000D01*
X165550000Y-149516000D02*
X167350000Y-149516000D01*
X159050000Y-149516000D02*
X159050000Y-148766000D01*
X159050000Y-148766000D02*
X157250000Y-148766000D01*
X157250000Y-148766000D02*
X157250000Y-149516000D01*
X157250000Y-149516000D02*
X159050000Y-149516000D01*
X167350000Y-147266000D02*
X166600000Y-147266000D01*
X166600000Y-147266000D02*
X166600000Y-145926000D01*
X162300000Y-144316000D02*
X165540000Y-144316000D01*
X157250000Y-147266000D02*
X158000000Y-147266000D01*
X158000000Y-147266000D02*
X158000000Y-144316000D01*
X158000000Y-144316000D02*
X162300000Y-144316000D01*
X166400000Y-149816000D02*
X167650000Y-149816000D01*
X167650000Y-149816000D02*
X167650000Y-148566000D01*
X167650000Y-140926000D02*
X167650000Y-139676000D01*
X166400000Y-140926000D02*
X167650000Y-140926000D01*
X158000000Y-135426000D02*
X162300000Y-135426000D01*
X158000000Y-138376000D02*
X158000000Y-135426000D01*
X157250000Y-138376000D02*
X158000000Y-138376000D01*
X162300000Y-135426000D02*
X165540000Y-135426000D01*
X166600000Y-138376000D02*
X166600000Y-137036000D01*
X167350000Y-138376000D02*
X166600000Y-138376000D01*
X157250000Y-140626000D02*
X159050000Y-140626000D01*
X157250000Y-139876000D02*
X157250000Y-140626000D01*
X159050000Y-139876000D02*
X157250000Y-139876000D01*
X159050000Y-140626000D02*
X159050000Y-139876000D01*
X165550000Y-140626000D02*
X167350000Y-140626000D01*
X165550000Y-139876000D02*
X165550000Y-140626000D01*
X167350000Y-139876000D02*
X165550000Y-139876000D01*
X167350000Y-140626000D02*
X167350000Y-139876000D01*
X160550000Y-140626000D02*
X164050000Y-140626000D01*
X160550000Y-139876000D02*
X160550000Y-140626000D01*
X164050000Y-139876000D02*
X160550000Y-139876000D01*
X164050000Y-140626000D02*
X164050000Y-139876000D01*
X157240000Y-140636000D02*
X167360000Y-140636000D01*
X157240000Y-134666000D02*
X157240000Y-140636000D01*
X167360000Y-134666000D02*
X157240000Y-134666000D01*
X167360000Y-140636000D02*
X167360000Y-134666000D01*
X114106000Y-124654000D02*
X114106000Y-125984000D01*
X112776000Y-124654000D02*
X114106000Y-124654000D01*
X111506000Y-124654000D02*
X111506000Y-127314000D01*
X111506000Y-127314000D02*
X108906000Y-127314000D01*
X111506000Y-124654000D02*
X108906000Y-124654000D01*
X108906000Y-124654000D02*
X108906000Y-127314000D01*
X128972000Y-127314000D02*
X128972000Y-125984000D01*
X130302000Y-127314000D02*
X128972000Y-127314000D01*
X131572000Y-127314000D02*
X131572000Y-124654000D01*
X131572000Y-124654000D02*
X134172000Y-124654000D01*
X131572000Y-127314000D02*
X134172000Y-127314000D01*
X134172000Y-127314000D02*
X134172000Y-124654000D01*
X155762000Y-127441000D02*
X155762000Y-124781000D01*
X153162000Y-127441000D02*
X155762000Y-127441000D01*
X153162000Y-124781000D02*
X155762000Y-124781000D01*
X153162000Y-127441000D02*
X153162000Y-124781000D01*
X151892000Y-127441000D02*
X150562000Y-127441000D01*
X150562000Y-127441000D02*
X150562000Y-126111000D01*
X156030000Y-153102000D02*
X153370000Y-153102000D01*
X156030000Y-155702000D02*
X156030000Y-153102000D01*
X153370000Y-155702000D02*
X153370000Y-153102000D01*
X156030000Y-155702000D02*
X153370000Y-155702000D01*
X156030000Y-156972000D02*
X156030000Y-158302000D01*
X156030000Y-158302000D02*
X154700000Y-158302000D01*
X156016000Y-143958000D02*
X153356000Y-143958000D01*
X156016000Y-146558000D02*
X156016000Y-143958000D01*
X153356000Y-146558000D02*
X153356000Y-143958000D01*
X156016000Y-146558000D02*
X153356000Y-146558000D01*
X156016000Y-147828000D02*
X156016000Y-149158000D01*
X156016000Y-149158000D02*
X154686000Y-149158000D01*
X156030000Y-140268000D02*
X154700000Y-140268000D01*
X156030000Y-138938000D02*
X156030000Y-140268000D01*
X156030000Y-137668000D02*
X153370000Y-137668000D01*
X153370000Y-137668000D02*
X153370000Y-135068000D01*
X156030000Y-137668000D02*
X156030000Y-135068000D01*
X156030000Y-135068000D02*
X153370000Y-135068000D01*
X110687000Y-149906000D02*
X110687000Y-139506000D01*
X100387000Y-149906000D02*
X100387000Y-139506000D01*
X110687000Y-139506000D02*
X100387000Y-139506000D01*
X110617000Y-149906000D02*
X100387000Y-149906000D01*
X122634752Y-144730400D02*
X122112248Y-144730400D01*
X122634752Y-146150400D02*
X122112248Y-146150400D01*
X126343480Y-159027228D02*
X126343480Y-159549732D01*
X124923480Y-159027228D02*
X124923480Y-159549732D01*
X116520752Y-146148000D02*
X115998248Y-146148000D01*
X116520752Y-144728000D02*
X115998248Y-144728000D01*
X116520752Y-142749200D02*
X115998248Y-142749200D01*
X116520752Y-144169200D02*
X115998248Y-144169200D01*
X118855748Y-126925000D02*
X119378252Y-126925000D01*
X118855748Y-128345000D02*
X119378252Y-128345000D01*
X124467252Y-128345000D02*
X123944748Y-128345000D01*
X124467252Y-126925000D02*
X123944748Y-126925000D01*
X139825252Y-128218000D02*
X139302748Y-128218000D01*
X139825252Y-126798000D02*
X139302748Y-126798000D01*
X113486000Y-151636252D02*
X113486000Y-151113748D01*
X112066000Y-151636252D02*
X112066000Y-151113748D01*
X163069748Y-160857000D02*
X163592252Y-160857000D01*
X163069748Y-159437000D02*
X163592252Y-159437000D01*
X163060748Y-151713000D02*
X163583252Y-151713000D01*
X163060748Y-150293000D02*
X163583252Y-150293000D01*
X163060748Y-141276000D02*
X163583252Y-141276000D01*
X163060748Y-142696000D02*
X163583252Y-142696000D01*
X119330900Y-144053200D02*
X121130900Y-144053200D01*
X121130900Y-140833200D02*
X118680900Y-140833200D01*
X101540000Y-123230000D02*
X101540000Y-121900000D01*
X102870000Y-123230000D02*
X101540000Y-123230000D01*
X104140000Y-123230000D02*
X104140000Y-120570000D01*
X104140000Y-120570000D02*
X121980000Y-120570000D01*
X104140000Y-123230000D02*
X121980000Y-123230000D01*
X121980000Y-123230000D02*
X121980000Y-120570000D01*
X104140000Y-107770000D02*
X121980000Y-107770000D01*
X104140000Y-110430000D02*
X121980000Y-110430000D01*
X104140000Y-110430000D02*
X104140000Y-107770000D01*
X121980000Y-110430000D02*
X121980000Y-107770000D01*
X101540000Y-110430000D02*
X101540000Y-109100000D01*
X102870000Y-110430000D02*
X101540000Y-110430000D01*
X124841000Y-110430000D02*
X123511000Y-110430000D01*
X123511000Y-110430000D02*
X123511000Y-109100000D01*
X143951000Y-110430000D02*
X143951000Y-107770000D01*
X126111000Y-110430000D02*
X126111000Y-107770000D01*
X126111000Y-110430000D02*
X143951000Y-110430000D01*
X126111000Y-107770000D02*
X143951000Y-107770000D01*
X143951000Y-123230000D02*
X143951000Y-120570000D01*
X126111000Y-123230000D02*
X143951000Y-123230000D01*
X126111000Y-120570000D02*
X143951000Y-120570000D01*
X126111000Y-123230000D02*
X126111000Y-120570000D01*
X124841000Y-123230000D02*
X123511000Y-123230000D01*
X123511000Y-123230000D02*
X123511000Y-121900000D01*
X145482000Y-123230000D02*
X145482000Y-121900000D01*
X146812000Y-123230000D02*
X145482000Y-123230000D01*
X148082000Y-123230000D02*
X148082000Y-120570000D01*
X148082000Y-120570000D02*
X165922000Y-120570000D01*
X148082000Y-123230000D02*
X165922000Y-123230000D01*
X165922000Y-123230000D02*
X165922000Y-120570000D01*
X148082000Y-107770000D02*
X165922000Y-107770000D01*
X148082000Y-110430000D02*
X165922000Y-110430000D01*
X148082000Y-110430000D02*
X148082000Y-107770000D01*
X165922000Y-110430000D02*
X165922000Y-107770000D01*
X145482000Y-110430000D02*
X145482000Y-109100000D01*
X146812000Y-110430000D02*
X145482000Y-110430000D01*
D13*
X123123480Y-158488480D02*
X123123480Y-160088480D01*
X120015480Y-158488480D02*
X120015480Y-160088480D01*
D14*
X122619480Y-156888480D02*
G75*
G03X122619480Y-156888480I-100000J0D01*
G01*
D12*
X142046000Y-161604000D02*
X142046000Y-156404000D01*
X131826000Y-161604000D02*
X142046000Y-161604000D01*
X129226000Y-156404000D02*
X142046000Y-156404000D01*
X131826000Y-161604000D02*
X131826000Y-159004000D01*
X131826000Y-159004000D02*
X129226000Y-159004000D01*
X129226000Y-159004000D02*
X129226000Y-156404000D01*
X130556000Y-161604000D02*
X129226000Y-161604000D01*
X129226000Y-161604000D02*
X129226000Y-160274000D01*
D10*
X170410733Y-121027180D02*
X170077400Y-120550990D01*
X169839304Y-121027180D02*
X169839304Y-120027180D01*
X170220257Y-120027180D01*
X170315495Y-120074800D01*
X170363114Y-120122419D01*
X170410733Y-120217657D01*
X170410733Y-120360514D01*
X170363114Y-120455752D01*
X170315495Y-120503371D01*
X170220257Y-120550990D01*
X169839304Y-120550990D01*
X171315495Y-120027180D02*
X170839304Y-120027180D01*
X170791685Y-120503371D01*
X170839304Y-120455752D01*
X170934542Y-120408133D01*
X171172638Y-120408133D01*
X171267876Y-120455752D01*
X171315495Y-120503371D01*
X171363114Y-120598609D01*
X171363114Y-120836704D01*
X171315495Y-120931942D01*
X171267876Y-120979561D01*
X171172638Y-121027180D01*
X170934542Y-121027180D01*
X170839304Y-120979561D01*
X170791685Y-120931942D01*
X147836000Y-134169904D02*
X147788380Y-134265142D01*
X147788380Y-134408000D01*
X147836000Y-134550857D01*
X147931238Y-134646095D01*
X148026476Y-134693714D01*
X148216952Y-134741333D01*
X148359809Y-134741333D01*
X148550285Y-134693714D01*
X148645523Y-134646095D01*
X148740761Y-134550857D01*
X148788380Y-134408000D01*
X148788380Y-134312761D01*
X148740761Y-134169904D01*
X148693142Y-134122285D01*
X148359809Y-134122285D01*
X148359809Y-134312761D01*
X148788380Y-133693714D02*
X147788380Y-133693714D01*
X148788380Y-133122285D01*
X147788380Y-133122285D01*
X148788380Y-132646095D02*
X147788380Y-132646095D01*
X147788380Y-132408000D01*
X147836000Y-132265142D01*
X147931238Y-132169904D01*
X148026476Y-132122285D01*
X148216952Y-132074666D01*
X148359809Y-132074666D01*
X148550285Y-132122285D01*
X148645523Y-132169904D01*
X148740761Y-132265142D01*
X148788380Y-132408000D01*
X148788380Y-132646095D01*
X147788380Y-152426095D02*
X147788380Y-151807047D01*
X148169333Y-152140380D01*
X148169333Y-151997523D01*
X148216952Y-151902285D01*
X148264571Y-151854666D01*
X148359809Y-151807047D01*
X148597904Y-151807047D01*
X148693142Y-151854666D01*
X148740761Y-151902285D01*
X148788380Y-151997523D01*
X148788380Y-152283238D01*
X148740761Y-152378476D01*
X148693142Y-152426095D01*
X147788380Y-151521333D02*
X148788380Y-151188000D01*
X147788380Y-150854666D01*
X147788380Y-150616571D02*
X147788380Y-149997523D01*
X148169333Y-150330857D01*
X148169333Y-150188000D01*
X148216952Y-150092761D01*
X148264571Y-150045142D01*
X148359809Y-149997523D01*
X148597904Y-149997523D01*
X148693142Y-150045142D01*
X148740761Y-150092761D01*
X148788380Y-150188000D01*
X148788380Y-150473714D01*
X148740761Y-150568952D01*
X148693142Y-150616571D01*
X102042980Y-152361876D02*
X102042980Y-152838066D01*
X102519171Y-152885685D01*
X102471552Y-152838066D01*
X102423933Y-152742828D01*
X102423933Y-152504733D01*
X102471552Y-152409495D01*
X102519171Y-152361876D01*
X102614409Y-152314257D01*
X102852504Y-152314257D01*
X102947742Y-152361876D01*
X102995361Y-152409495D01*
X103042980Y-152504733D01*
X103042980Y-152742828D01*
X102995361Y-152838066D01*
X102947742Y-152885685D01*
X102042980Y-152028542D02*
X103042980Y-151695209D01*
X102042980Y-151361876D01*
X146248380Y-134979428D02*
X145248380Y-134979428D01*
X145962666Y-134646095D01*
X145248380Y-134312761D01*
X146248380Y-134312761D01*
X145248380Y-133646095D02*
X145248380Y-133455619D01*
X145296000Y-133360380D01*
X145391238Y-133265142D01*
X145581714Y-133217523D01*
X145915047Y-133217523D01*
X146105523Y-133265142D01*
X146200761Y-133360380D01*
X146248380Y-133455619D01*
X146248380Y-133646095D01*
X146200761Y-133741333D01*
X146105523Y-133836571D01*
X145915047Y-133884190D01*
X145581714Y-133884190D01*
X145391238Y-133836571D01*
X145296000Y-133741333D01*
X145248380Y-133646095D01*
X146200761Y-132836571D02*
X146248380Y-132693714D01*
X146248380Y-132455619D01*
X146200761Y-132360380D01*
X146153142Y-132312761D01*
X146057904Y-132265142D01*
X145962666Y-132265142D01*
X145867428Y-132312761D01*
X145819809Y-132360380D01*
X145772190Y-132455619D01*
X145724571Y-132646095D01*
X145676952Y-132741333D01*
X145629333Y-132788952D01*
X145534095Y-132836571D01*
X145438857Y-132836571D01*
X145343619Y-132788952D01*
X145296000Y-132741333D01*
X145248380Y-132646095D01*
X145248380Y-132408000D01*
X145296000Y-132265142D01*
X146248380Y-131836571D02*
X145248380Y-131836571D01*
X131008380Y-134979428D02*
X130008380Y-134979428D01*
X130722666Y-134646095D01*
X130008380Y-134312761D01*
X131008380Y-134312761D01*
X131008380Y-133836571D02*
X130008380Y-133836571D01*
X130960761Y-133408000D02*
X131008380Y-133265142D01*
X131008380Y-133027047D01*
X130960761Y-132931809D01*
X130913142Y-132884190D01*
X130817904Y-132836571D01*
X130722666Y-132836571D01*
X130627428Y-132884190D01*
X130579809Y-132931809D01*
X130532190Y-133027047D01*
X130484571Y-133217523D01*
X130436952Y-133312761D01*
X130389333Y-133360380D01*
X130294095Y-133408000D01*
X130198857Y-133408000D01*
X130103619Y-133360380D01*
X130056000Y-133312761D01*
X130008380Y-133217523D01*
X130008380Y-132979428D01*
X130056000Y-132836571D01*
X130008380Y-132217523D02*
X130008380Y-132027047D01*
X130056000Y-131931809D01*
X130151238Y-131836571D01*
X130341714Y-131788952D01*
X130675047Y-131788952D01*
X130865523Y-131836571D01*
X130960761Y-131931809D01*
X131008380Y-132027047D01*
X131008380Y-132217523D01*
X130960761Y-132312761D01*
X130865523Y-132408000D01*
X130675047Y-132455619D01*
X130341714Y-132455619D01*
X130151238Y-132408000D01*
X130056000Y-132312761D01*
X130008380Y-132217523D01*
X128420761Y-134693714D02*
X128468380Y-134550857D01*
X128468380Y-134312761D01*
X128420761Y-134217523D01*
X128373142Y-134169904D01*
X128277904Y-134122285D01*
X128182666Y-134122285D01*
X128087428Y-134169904D01*
X128039809Y-134217523D01*
X127992190Y-134312761D01*
X127944571Y-134503238D01*
X127896952Y-134598476D01*
X127849333Y-134646095D01*
X127754095Y-134693714D01*
X127658857Y-134693714D01*
X127563619Y-134646095D01*
X127516000Y-134598476D01*
X127468380Y-134503238D01*
X127468380Y-134265142D01*
X127516000Y-134122285D01*
X128373142Y-133122285D02*
X128420761Y-133169904D01*
X128468380Y-133312761D01*
X128468380Y-133408000D01*
X128420761Y-133550857D01*
X128325523Y-133646095D01*
X128230285Y-133693714D01*
X128039809Y-133741333D01*
X127896952Y-133741333D01*
X127706476Y-133693714D01*
X127611238Y-133646095D01*
X127516000Y-133550857D01*
X127468380Y-133408000D01*
X127468380Y-133312761D01*
X127516000Y-133169904D01*
X127563619Y-133122285D01*
X128468380Y-132693714D02*
X127468380Y-132693714D01*
X128468380Y-132122285D02*
X127896952Y-132550857D01*
X127468380Y-132122285D02*
X128039809Y-132693714D01*
X132596000Y-134169904D02*
X132548380Y-134265142D01*
X132548380Y-134408000D01*
X132596000Y-134550857D01*
X132691238Y-134646095D01*
X132786476Y-134693714D01*
X132976952Y-134741333D01*
X133119809Y-134741333D01*
X133310285Y-134693714D01*
X133405523Y-134646095D01*
X133500761Y-134550857D01*
X133548380Y-134408000D01*
X133548380Y-134312761D01*
X133500761Y-134169904D01*
X133453142Y-134122285D01*
X133119809Y-134122285D01*
X133119809Y-134312761D01*
X133548380Y-133693714D02*
X132548380Y-133693714D01*
X133548380Y-133122285D01*
X132548380Y-133122285D01*
X133548380Y-132646095D02*
X132548380Y-132646095D01*
X132548380Y-132408000D01*
X132596000Y-132265142D01*
X132691238Y-132169904D01*
X132786476Y-132122285D01*
X132976952Y-132074666D01*
X133119809Y-132074666D01*
X133310285Y-132122285D01*
X133405523Y-132169904D01*
X133500761Y-132265142D01*
X133548380Y-132408000D01*
X133548380Y-132646095D01*
X163435706Y-101016820D02*
X163435706Y-101731106D01*
X163388087Y-101873963D01*
X163292849Y-101969201D01*
X163149992Y-102016820D01*
X163054754Y-102016820D01*
X164054754Y-101445392D02*
X163959516Y-101397773D01*
X163911897Y-101350154D01*
X163864278Y-101254916D01*
X163864278Y-101207297D01*
X163911897Y-101112059D01*
X163959516Y-101064440D01*
X164054754Y-101016820D01*
X164245230Y-101016820D01*
X164340468Y-101064440D01*
X164388087Y-101112059D01*
X164435706Y-101207297D01*
X164435706Y-101254916D01*
X164388087Y-101350154D01*
X164340468Y-101397773D01*
X164245230Y-101445392D01*
X164054754Y-101445392D01*
X163959516Y-101493011D01*
X163911897Y-101540630D01*
X163864278Y-101635868D01*
X163864278Y-101826344D01*
X163911897Y-101921582D01*
X163959516Y-101969201D01*
X164054754Y-102016820D01*
X164245230Y-102016820D01*
X164340468Y-101969201D01*
X164388087Y-101921582D01*
X164435706Y-101826344D01*
X164435706Y-101635868D01*
X164388087Y-101540630D01*
X164340468Y-101493011D01*
X164245230Y-101445392D01*
X147242280Y-105606576D02*
X147242280Y-104939909D01*
X148242280Y-105606576D01*
X148242280Y-104939909D01*
X148337519Y-104797052D02*
X148337519Y-104035147D01*
X148242280Y-103797052D02*
X147242280Y-103797052D01*
X147956566Y-103463719D01*
X147242280Y-103130385D01*
X148242280Y-103130385D01*
X147242280Y-102463719D02*
X147242280Y-102273242D01*
X147289900Y-102178004D01*
X147385138Y-102082766D01*
X147575614Y-102035147D01*
X147908947Y-102035147D01*
X148099423Y-102082766D01*
X148194661Y-102178004D01*
X148242280Y-102273242D01*
X148242280Y-102463719D01*
X148194661Y-102558957D01*
X148099423Y-102654195D01*
X147908947Y-102701814D01*
X147575614Y-102701814D01*
X147385138Y-102654195D01*
X147289900Y-102558957D01*
X147242280Y-102463719D01*
X147242280Y-101749433D02*
X147242280Y-101178004D01*
X148242280Y-101463719D02*
X147242280Y-101463719D01*
X124811806Y-144664394D02*
X124773711Y-144702489D01*
X124659425Y-144740584D01*
X124583235Y-144740584D01*
X124468949Y-144702489D01*
X124392759Y-144626299D01*
X124354663Y-144550108D01*
X124316568Y-144397727D01*
X124316568Y-144283441D01*
X124354663Y-144131060D01*
X124392759Y-144054870D01*
X124468949Y-143978680D01*
X124583235Y-143940584D01*
X124659425Y-143940584D01*
X124773711Y-143978680D01*
X124811806Y-144016775D01*
X125573711Y-144740584D02*
X125116568Y-144740584D01*
X125345140Y-144740584D02*
X125345140Y-143940584D01*
X125268949Y-144054870D01*
X125192759Y-144131060D01*
X125116568Y-144169156D01*
X119884033Y-139125902D02*
X119836414Y-139173521D01*
X119693557Y-139221140D01*
X119598319Y-139221140D01*
X119455461Y-139173521D01*
X119360223Y-139078283D01*
X119312604Y-138983045D01*
X119264985Y-138792569D01*
X119264985Y-138649712D01*
X119312604Y-138459236D01*
X119360223Y-138363998D01*
X119455461Y-138268760D01*
X119598319Y-138221140D01*
X119693557Y-138221140D01*
X119836414Y-138268760D01*
X119884033Y-138316379D01*
X120264985Y-138316379D02*
X120312604Y-138268760D01*
X120407842Y-138221140D01*
X120645938Y-138221140D01*
X120741176Y-138268760D01*
X120788795Y-138316379D01*
X120836414Y-138411617D01*
X120836414Y-138506855D01*
X120788795Y-138649712D01*
X120217366Y-139221140D01*
X120836414Y-139221140D01*
D12*
X112657906Y-141728154D02*
X112619811Y-141766249D01*
X112505525Y-141804344D01*
X112429335Y-141804344D01*
X112315049Y-141766249D01*
X112238859Y-141690059D01*
X112200763Y-141613868D01*
X112162668Y-141461487D01*
X112162668Y-141347201D01*
X112200763Y-141194820D01*
X112238859Y-141118630D01*
X112315049Y-141042440D01*
X112429335Y-141004344D01*
X112505525Y-141004344D01*
X112619811Y-141042440D01*
X112657906Y-141080535D01*
X112924573Y-141004344D02*
X113419811Y-141004344D01*
X113153144Y-141309106D01*
X113267430Y-141309106D01*
X113343620Y-141347201D01*
X113381716Y-141385297D01*
X113419811Y-141461487D01*
X113419811Y-141651963D01*
X113381716Y-141728154D01*
X113343620Y-141766249D01*
X113267430Y-141804344D01*
X113038859Y-141804344D01*
X112962668Y-141766249D01*
X112924573Y-141728154D01*
D10*
X151583093Y-119536482D02*
X151535474Y-119584101D01*
X151392617Y-119631720D01*
X151297379Y-119631720D01*
X151154521Y-119584101D01*
X151059283Y-119488863D01*
X151011664Y-119393625D01*
X150964045Y-119203149D01*
X150964045Y-119060292D01*
X151011664Y-118869816D01*
X151059283Y-118774578D01*
X151154521Y-118679340D01*
X151297379Y-118631720D01*
X151392617Y-118631720D01*
X151535474Y-118679340D01*
X151583093Y-118726959D01*
X152440236Y-118965054D02*
X152440236Y-119631720D01*
X152202140Y-118584101D02*
X151964045Y-119298387D01*
X152583093Y-119298387D01*
X129680673Y-119721902D02*
X129633054Y-119769521D01*
X129490197Y-119817140D01*
X129394959Y-119817140D01*
X129252101Y-119769521D01*
X129156863Y-119674283D01*
X129109244Y-119579045D01*
X129061625Y-119388569D01*
X129061625Y-119245712D01*
X129109244Y-119055236D01*
X129156863Y-118959998D01*
X129252101Y-118864760D01*
X129394959Y-118817140D01*
X129490197Y-118817140D01*
X129633054Y-118864760D01*
X129680673Y-118912379D01*
X130585435Y-118817140D02*
X130109244Y-118817140D01*
X130061625Y-119293331D01*
X130109244Y-119245712D01*
X130204482Y-119198093D01*
X130442578Y-119198093D01*
X130537816Y-119245712D01*
X130585435Y-119293331D01*
X130633054Y-119388569D01*
X130633054Y-119626664D01*
X130585435Y-119721902D01*
X130537816Y-119769521D01*
X130442578Y-119817140D01*
X130204482Y-119817140D01*
X130109244Y-119769521D01*
X130061625Y-119721902D01*
X108065273Y-119638082D02*
X108017654Y-119685701D01*
X107874797Y-119733320D01*
X107779559Y-119733320D01*
X107636701Y-119685701D01*
X107541463Y-119590463D01*
X107493844Y-119495225D01*
X107446225Y-119304749D01*
X107446225Y-119161892D01*
X107493844Y-118971416D01*
X107541463Y-118876178D01*
X107636701Y-118780940D01*
X107779559Y-118733320D01*
X107874797Y-118733320D01*
X108017654Y-118780940D01*
X108065273Y-118828559D01*
X108922416Y-118733320D02*
X108731940Y-118733320D01*
X108636701Y-118780940D01*
X108589082Y-118828559D01*
X108493844Y-118971416D01*
X108446225Y-119161892D01*
X108446225Y-119542844D01*
X108493844Y-119638082D01*
X108541463Y-119685701D01*
X108636701Y-119733320D01*
X108827178Y-119733320D01*
X108922416Y-119685701D01*
X108970035Y-119638082D01*
X109017654Y-119542844D01*
X109017654Y-119304749D01*
X108970035Y-119209511D01*
X108922416Y-119161892D01*
X108827178Y-119114273D01*
X108636701Y-119114273D01*
X108541463Y-119161892D01*
X108493844Y-119209511D01*
X108446225Y-119304749D01*
X114181664Y-133182620D02*
X114181664Y-132182620D01*
X114419760Y-132182620D01*
X114562617Y-132230240D01*
X114657855Y-132325478D01*
X114705474Y-132420716D01*
X114753093Y-132611192D01*
X114753093Y-132754049D01*
X114705474Y-132944525D01*
X114657855Y-133039763D01*
X114562617Y-133135001D01*
X114419760Y-133182620D01*
X114181664Y-133182620D01*
X115705474Y-133182620D02*
X115134045Y-133182620D01*
X115419760Y-133182620D02*
X115419760Y-132182620D01*
X115324521Y-132325478D01*
X115229283Y-132420716D01*
X115134045Y-132468335D01*
X173480604Y-124157980D02*
X173480604Y-123157980D01*
X173718700Y-123157980D01*
X173861557Y-123205600D01*
X173956795Y-123300838D01*
X174004414Y-123396076D01*
X174052033Y-123586552D01*
X174052033Y-123729409D01*
X174004414Y-123919885D01*
X173956795Y-124015123D01*
X173861557Y-124110361D01*
X173718700Y-124157980D01*
X173480604Y-124157980D01*
X174432985Y-123253219D02*
X174480604Y-123205600D01*
X174575842Y-123157980D01*
X174813938Y-123157980D01*
X174909176Y-123205600D01*
X174956795Y-123253219D01*
X175004414Y-123348457D01*
X175004414Y-123443695D01*
X174956795Y-123586552D01*
X174385366Y-124157980D01*
X175004414Y-124157980D01*
X173910666Y-124630380D02*
X173910666Y-125344666D01*
X173863047Y-125487523D01*
X173767809Y-125582761D01*
X173624952Y-125630380D01*
X173529714Y-125630380D01*
X174910666Y-125630380D02*
X174339238Y-125630380D01*
X174624952Y-125630380D02*
X174624952Y-124630380D01*
X174529714Y-124773238D01*
X174434476Y-124868476D01*
X174339238Y-124916095D01*
X105139240Y-156987833D02*
X105853526Y-156987833D01*
X105996383Y-157035452D01*
X106091621Y-157130690D01*
X106139240Y-157273547D01*
X106139240Y-157368785D01*
X105234479Y-156559261D02*
X105186860Y-156511642D01*
X105139240Y-156416404D01*
X105139240Y-156178309D01*
X105186860Y-156083071D01*
X105234479Y-156035452D01*
X105329717Y-155987833D01*
X105424955Y-155987833D01*
X105567812Y-156035452D01*
X106139240Y-156606880D01*
X106139240Y-155987833D01*
X118672241Y-161399622D02*
X118719860Y-161256765D01*
X118719860Y-161018670D01*
X118672241Y-160923432D01*
X118624622Y-160875813D01*
X118529384Y-160828194D01*
X118434146Y-160828194D01*
X118338908Y-160875813D01*
X118291289Y-160923432D01*
X118243670Y-161018670D01*
X118196051Y-161209146D01*
X118148432Y-161304384D01*
X118100813Y-161352003D01*
X118005575Y-161399622D01*
X117910337Y-161399622D01*
X117815099Y-161352003D01*
X117767480Y-161304384D01*
X117719860Y-161209146D01*
X117719860Y-160971051D01*
X117767480Y-160828194D01*
X118672241Y-160018670D02*
X118719860Y-160113908D01*
X118719860Y-160304384D01*
X118672241Y-160399622D01*
X118577003Y-160447241D01*
X118196051Y-160447241D01*
X118100813Y-160399622D01*
X118053194Y-160304384D01*
X118053194Y-160113908D01*
X118100813Y-160018670D01*
X118196051Y-159971051D01*
X118291289Y-159971051D01*
X118386527Y-160447241D01*
X118719860Y-159542480D02*
X118053194Y-159542480D01*
X118243670Y-159542480D02*
X118148432Y-159494860D01*
X118100813Y-159447241D01*
X118053194Y-159352003D01*
X118053194Y-159256765D01*
X118053194Y-159018670D02*
X118719860Y-158780575D01*
X118053194Y-158542480D01*
X118719860Y-158018670D02*
X118672241Y-158113908D01*
X118624622Y-158161527D01*
X118529384Y-158209146D01*
X118243670Y-158209146D01*
X118148432Y-158161527D01*
X118100813Y-158113908D01*
X118053194Y-158018670D01*
X118053194Y-157875813D01*
X118100813Y-157780575D01*
X118148432Y-157732956D01*
X118243670Y-157685337D01*
X118529384Y-157685337D01*
X118624622Y-157732956D01*
X118672241Y-157780575D01*
X118719860Y-157875813D01*
X118719860Y-158018670D01*
X168616380Y-105933833D02*
X169330666Y-105933833D01*
X169473523Y-105981452D01*
X169568761Y-106076690D01*
X169616380Y-106219547D01*
X169616380Y-106314785D01*
X168949714Y-105029071D02*
X169616380Y-105029071D01*
X168568761Y-105267166D02*
X169283047Y-105505261D01*
X169283047Y-104886214D01*
X170013380Y-115268333D02*
X170727666Y-115268333D01*
X170870523Y-115315952D01*
X170965761Y-115411190D01*
X171013380Y-115554047D01*
X171013380Y-115649285D01*
X170013380Y-114363571D02*
X170013380Y-114554047D01*
X170061000Y-114649285D01*
X170108619Y-114696904D01*
X170251476Y-114792142D01*
X170441952Y-114839761D01*
X170822904Y-114839761D01*
X170918142Y-114792142D01*
X170965761Y-114744523D01*
X171013380Y-114649285D01*
X171013380Y-114458809D01*
X170965761Y-114363571D01*
X170918142Y-114315952D01*
X170822904Y-114268333D01*
X170584809Y-114268333D01*
X170489571Y-114315952D01*
X170441952Y-114363571D01*
X170394333Y-114458809D01*
X170394333Y-114649285D01*
X170441952Y-114744523D01*
X170489571Y-114792142D01*
X170584809Y-114839761D01*
X119305746Y-105375460D02*
X119305746Y-106089746D01*
X119258127Y-106232603D01*
X119162889Y-106327841D01*
X119020032Y-106375460D01*
X118924794Y-106375460D01*
X119686699Y-105375460D02*
X120353365Y-105375460D01*
X119924794Y-106375460D01*
X103363780Y-105835176D02*
X104363780Y-105168509D01*
X103363780Y-105168509D02*
X104363780Y-105835176D01*
X104459019Y-105025652D02*
X104459019Y-104263747D01*
X104363780Y-104025652D02*
X103363780Y-104025652D01*
X104078066Y-103692319D01*
X103363780Y-103358985D01*
X104363780Y-103358985D01*
X103363780Y-102692319D02*
X103363780Y-102501842D01*
X103411400Y-102406604D01*
X103506638Y-102311366D01*
X103697114Y-102263747D01*
X104030447Y-102263747D01*
X104220923Y-102311366D01*
X104316161Y-102406604D01*
X104363780Y-102501842D01*
X104363780Y-102692319D01*
X104316161Y-102787557D01*
X104220923Y-102882795D01*
X104030447Y-102930414D01*
X103697114Y-102930414D01*
X103506638Y-102882795D01*
X103411400Y-102787557D01*
X103363780Y-102692319D01*
X103363780Y-101978033D02*
X103363780Y-101406604D01*
X104363780Y-101692319D02*
X103363780Y-101692319D01*
X141164986Y-100981260D02*
X141164986Y-101695546D01*
X141117367Y-101838403D01*
X141022129Y-101933641D01*
X140879272Y-101981260D01*
X140784034Y-101981260D01*
X141688796Y-101981260D02*
X141879272Y-101981260D01*
X141974510Y-101933641D01*
X142022129Y-101886022D01*
X142117367Y-101743165D01*
X142164986Y-101552689D01*
X142164986Y-101171737D01*
X142117367Y-101076499D01*
X142069748Y-101028880D01*
X141974510Y-100981260D01*
X141784034Y-100981260D01*
X141688796Y-101028880D01*
X141641177Y-101076499D01*
X141593558Y-101171737D01*
X141593558Y-101409832D01*
X141641177Y-101505070D01*
X141688796Y-101552689D01*
X141784034Y-101600308D01*
X141974510Y-101600308D01*
X142069748Y-101552689D01*
X142117367Y-101505070D01*
X142164986Y-101409832D01*
X126295470Y-105509462D02*
X126771660Y-105509462D01*
X125771660Y-105842796D02*
X126295470Y-105509462D01*
X125771660Y-105176129D01*
X126866899Y-105080891D02*
X126866899Y-104318986D01*
X126771660Y-104080891D02*
X125771660Y-104080891D01*
X126485946Y-103747558D01*
X125771660Y-103414224D01*
X126771660Y-103414224D01*
X125771660Y-102747558D02*
X125771660Y-102557081D01*
X125819280Y-102461843D01*
X125914518Y-102366605D01*
X126104994Y-102318986D01*
X126438327Y-102318986D01*
X126628803Y-102366605D01*
X126724041Y-102461843D01*
X126771660Y-102557081D01*
X126771660Y-102747558D01*
X126724041Y-102842796D01*
X126628803Y-102938034D01*
X126438327Y-102985653D01*
X126104994Y-102985653D01*
X125914518Y-102938034D01*
X125819280Y-102842796D01*
X125771660Y-102747558D01*
X125771660Y-102033272D02*
X125771660Y-101461843D01*
X126771660Y-101747558D02*
X125771660Y-101747558D01*
X165560476Y-151090380D02*
X165560476Y-151804666D01*
X165512857Y-151947523D01*
X165417619Y-152042761D01*
X165274761Y-152090380D01*
X165179523Y-152090380D01*
X166560476Y-152090380D02*
X165989047Y-152090380D01*
X166274761Y-152090380D02*
X166274761Y-151090380D01*
X166179523Y-151233238D01*
X166084285Y-151328476D01*
X165989047Y-151376095D01*
X167179523Y-151090380D02*
X167274761Y-151090380D01*
X167370000Y-151138000D01*
X167417619Y-151185619D01*
X167465238Y-151280857D01*
X167512857Y-151471333D01*
X167512857Y-151709428D01*
X167465238Y-151899904D01*
X167417619Y-151995142D01*
X167370000Y-152042761D01*
X167274761Y-152090380D01*
X167179523Y-152090380D01*
X167084285Y-152042761D01*
X167036666Y-151995142D01*
X166989047Y-151899904D01*
X166941428Y-151709428D01*
X166941428Y-151471333D01*
X166989047Y-151280857D01*
X167036666Y-151185619D01*
X167084285Y-151138000D01*
X167179523Y-151090380D01*
X168189380Y-157749619D02*
X169189380Y-157082952D01*
X168189380Y-157082952D02*
X169189380Y-157749619D01*
X169284619Y-156940095D02*
X169284619Y-156178190D01*
X169189380Y-155940095D02*
X168189380Y-155940095D01*
X168903666Y-155606761D01*
X168189380Y-155273428D01*
X169189380Y-155273428D01*
X169189380Y-154797238D02*
X168189380Y-154797238D01*
X169189380Y-154321047D02*
X168189380Y-154321047D01*
X169189380Y-153749619D01*
X168189380Y-153749619D01*
X165306476Y-141850380D02*
X165306476Y-142564666D01*
X165258857Y-142707523D01*
X165163619Y-142802761D01*
X165020761Y-142850380D01*
X164925523Y-142850380D01*
X166306476Y-142850380D02*
X165735047Y-142850380D01*
X166020761Y-142850380D02*
X166020761Y-141850380D01*
X165925523Y-141993238D01*
X165830285Y-142088476D01*
X165735047Y-142136095D01*
X167258857Y-142850380D02*
X166687428Y-142850380D01*
X166973142Y-142850380D02*
X166973142Y-141850380D01*
X166877904Y-141993238D01*
X166782666Y-142088476D01*
X166687428Y-142136095D01*
X168586190Y-148399285D02*
X169062380Y-148399285D01*
X168062380Y-148732619D02*
X168586190Y-148399285D01*
X168062380Y-148065952D01*
X169157619Y-147970714D02*
X169157619Y-147208809D01*
X169062380Y-146970714D02*
X168062380Y-146970714D01*
X168776666Y-146637380D01*
X168062380Y-146304047D01*
X169062380Y-146304047D01*
X169062380Y-145827857D02*
X168062380Y-145827857D01*
X169062380Y-145351666D02*
X168062380Y-145351666D01*
X169062380Y-144780238D01*
X168062380Y-144780238D01*
X165560476Y-132802380D02*
X165560476Y-133516666D01*
X165512857Y-133659523D01*
X165417619Y-133754761D01*
X165274761Y-133802380D01*
X165179523Y-133802380D01*
X166560476Y-133802380D02*
X165989047Y-133802380D01*
X166274761Y-133802380D02*
X166274761Y-132802380D01*
X166179523Y-132945238D01*
X166084285Y-133040476D01*
X165989047Y-133088095D01*
X166941428Y-132897619D02*
X166989047Y-132850000D01*
X167084285Y-132802380D01*
X167322380Y-132802380D01*
X167417619Y-132850000D01*
X167465238Y-132897619D01*
X167512857Y-132992857D01*
X167512857Y-133088095D01*
X167465238Y-133230952D01*
X166893809Y-133802380D01*
X167512857Y-133802380D01*
X168108380Y-139779119D02*
X168108380Y-139112452D01*
X169108380Y-139779119D01*
X169108380Y-139112452D01*
X169203619Y-138969595D02*
X169203619Y-138207690D01*
X169108380Y-137969595D02*
X168108380Y-137969595D01*
X168822666Y-137636261D01*
X168108380Y-137302928D01*
X169108380Y-137302928D01*
X169108380Y-136826738D02*
X168108380Y-136826738D01*
X169108380Y-136350547D02*
X168108380Y-136350547D01*
X169108380Y-135779119D01*
X168108380Y-135779119D01*
X107062020Y-126995133D02*
X107776306Y-126995133D01*
X107919163Y-127042752D01*
X108014401Y-127137990D01*
X108062020Y-127280847D01*
X108062020Y-127376085D01*
X108062020Y-126518942D02*
X107062020Y-126518942D01*
X107062020Y-126137990D01*
X107109640Y-126042752D01*
X107157259Y-125995133D01*
X107252497Y-125947514D01*
X107395354Y-125947514D01*
X107490592Y-125995133D01*
X107538211Y-126042752D01*
X107585830Y-126137990D01*
X107585830Y-126518942D01*
X108062020Y-124995133D02*
X108062020Y-125566561D01*
X108062020Y-125280847D02*
X107062020Y-125280847D01*
X107204878Y-125376085D01*
X107300116Y-125471323D01*
X107347735Y-125566561D01*
X148715480Y-127223733D02*
X149429766Y-127223733D01*
X149572623Y-127271352D01*
X149667861Y-127366590D01*
X149715480Y-127509447D01*
X149715480Y-127604685D01*
X149715480Y-126747542D02*
X148715480Y-126747542D01*
X148715480Y-126366590D01*
X148763100Y-126271352D01*
X148810719Y-126223733D01*
X148905957Y-126176114D01*
X149048814Y-126176114D01*
X149144052Y-126223733D01*
X149191671Y-126271352D01*
X149239290Y-126366590D01*
X149239290Y-126747542D01*
X149048814Y-125318971D02*
X149715480Y-125318971D01*
X148667861Y-125557066D02*
X149382147Y-125795161D01*
X149382147Y-125176114D01*
X151612380Y-156281333D02*
X152326666Y-156281333D01*
X152469523Y-156328952D01*
X152564761Y-156424190D01*
X152612380Y-156567047D01*
X152612380Y-156662285D01*
X152612380Y-155805142D02*
X151612380Y-155805142D01*
X151612380Y-155424190D01*
X151660000Y-155328952D01*
X151707619Y-155281333D01*
X151802857Y-155233714D01*
X151945714Y-155233714D01*
X152040952Y-155281333D01*
X152088571Y-155328952D01*
X152136190Y-155424190D01*
X152136190Y-155805142D01*
X151612380Y-154900380D02*
X151612380Y-154233714D01*
X152612380Y-154662285D01*
X151344380Y-147391333D02*
X152058666Y-147391333D01*
X152201523Y-147438952D01*
X152296761Y-147534190D01*
X152344380Y-147677047D01*
X152344380Y-147772285D01*
X152344380Y-146915142D02*
X151344380Y-146915142D01*
X151344380Y-146534190D01*
X151392000Y-146438952D01*
X151439619Y-146391333D01*
X151534857Y-146343714D01*
X151677714Y-146343714D01*
X151772952Y-146391333D01*
X151820571Y-146438952D01*
X151868190Y-146534190D01*
X151868190Y-146915142D01*
X151772952Y-145772285D02*
X151725333Y-145867523D01*
X151677714Y-145915142D01*
X151582476Y-145962761D01*
X151534857Y-145962761D01*
X151439619Y-145915142D01*
X151392000Y-145867523D01*
X151344380Y-145772285D01*
X151344380Y-145581809D01*
X151392000Y-145486571D01*
X151439619Y-145438952D01*
X151534857Y-145391333D01*
X151582476Y-145391333D01*
X151677714Y-145438952D01*
X151725333Y-145486571D01*
X151772952Y-145581809D01*
X151772952Y-145772285D01*
X151820571Y-145867523D01*
X151868190Y-145915142D01*
X151963428Y-145962761D01*
X152153904Y-145962761D01*
X152249142Y-145915142D01*
X152296761Y-145867523D01*
X152344380Y-145772285D01*
X152344380Y-145581809D01*
X152296761Y-145486571D01*
X152249142Y-145438952D01*
X152153904Y-145391333D01*
X151963428Y-145391333D01*
X151868190Y-145438952D01*
X151820571Y-145486571D01*
X151772952Y-145581809D01*
X151486620Y-138694373D02*
X152200906Y-138694373D01*
X152343763Y-138741992D01*
X152439001Y-138837230D01*
X152486620Y-138980087D01*
X152486620Y-139075325D01*
X152486620Y-138218182D02*
X151486620Y-138218182D01*
X151486620Y-137837230D01*
X151534240Y-137741992D01*
X151581859Y-137694373D01*
X151677097Y-137646754D01*
X151819954Y-137646754D01*
X151915192Y-137694373D01*
X151962811Y-137741992D01*
X152010430Y-137837230D01*
X152010430Y-138218182D01*
X152486620Y-137170563D02*
X152486620Y-136980087D01*
X152439001Y-136884849D01*
X152391382Y-136837230D01*
X152248525Y-136741992D01*
X152058049Y-136694373D01*
X151677097Y-136694373D01*
X151581859Y-136741992D01*
X151534240Y-136789611D01*
X151486620Y-136884849D01*
X151486620Y-137075325D01*
X151534240Y-137170563D01*
X151581859Y-137218182D01*
X151677097Y-137265801D01*
X151915192Y-137265801D01*
X152010430Y-137218182D01*
X152058049Y-137170563D01*
X152105668Y-137075325D01*
X152105668Y-136884849D01*
X152058049Y-136789611D01*
X152010430Y-136741992D01*
X151915192Y-136694373D01*
X108900933Y-151455780D02*
X108424742Y-151455780D01*
X108424742Y-150455780D01*
X109758076Y-151455780D02*
X109186647Y-151455780D01*
X109472361Y-151455780D02*
X109472361Y-150455780D01*
X109377123Y-150598638D01*
X109281885Y-150693876D01*
X109186647Y-150741495D01*
X122206833Y-147542780D02*
X121873500Y-147066590D01*
X121635404Y-147542780D02*
X121635404Y-146542780D01*
X122016357Y-146542780D01*
X122111595Y-146590400D01*
X122159214Y-146638019D01*
X122206833Y-146733257D01*
X122206833Y-146876114D01*
X122159214Y-146971352D01*
X122111595Y-147018971D01*
X122016357Y-147066590D01*
X121635404Y-147066590D01*
X123159214Y-147542780D02*
X122587785Y-147542780D01*
X122873500Y-147542780D02*
X122873500Y-146542780D01*
X122778261Y-146685638D01*
X122683023Y-146780876D01*
X122587785Y-146828495D01*
X127777500Y-159927586D02*
X127301310Y-160260920D01*
X127777500Y-160499015D02*
X126777500Y-160499015D01*
X126777500Y-160118062D01*
X126825120Y-160022824D01*
X126872739Y-159975205D01*
X126967977Y-159927586D01*
X127110834Y-159927586D01*
X127206072Y-159975205D01*
X127253691Y-160022824D01*
X127301310Y-160118062D01*
X127301310Y-160499015D01*
X126872739Y-159546634D02*
X126825120Y-159499015D01*
X126777500Y-159403777D01*
X126777500Y-159165681D01*
X126825120Y-159070443D01*
X126872739Y-159022824D01*
X126967977Y-158975205D01*
X127063215Y-158975205D01*
X127206072Y-159022824D01*
X127777500Y-159594253D01*
X127777500Y-158975205D01*
X116228833Y-147772380D02*
X115895500Y-147296190D01*
X115657404Y-147772380D02*
X115657404Y-146772380D01*
X116038357Y-146772380D01*
X116133595Y-146820000D01*
X116181214Y-146867619D01*
X116228833Y-146962857D01*
X116228833Y-147105714D01*
X116181214Y-147200952D01*
X116133595Y-147248571D01*
X116038357Y-147296190D01*
X115657404Y-147296190D01*
X116562166Y-146772380D02*
X117181214Y-146772380D01*
X116847880Y-147153333D01*
X116990738Y-147153333D01*
X117085976Y-147200952D01*
X117133595Y-147248571D01*
X117181214Y-147343809D01*
X117181214Y-147581904D01*
X117133595Y-147677142D01*
X117085976Y-147724761D01*
X116990738Y-147772380D01*
X116705023Y-147772380D01*
X116609785Y-147724761D01*
X116562166Y-147677142D01*
X116089133Y-142387580D02*
X115755800Y-141911390D01*
X115517704Y-142387580D02*
X115517704Y-141387580D01*
X115898657Y-141387580D01*
X115993895Y-141435200D01*
X116041514Y-141482819D01*
X116089133Y-141578057D01*
X116089133Y-141720914D01*
X116041514Y-141816152D01*
X115993895Y-141863771D01*
X115898657Y-141911390D01*
X115517704Y-141911390D01*
X116946276Y-141720914D02*
X116946276Y-142387580D01*
X116708180Y-141339961D02*
X116470085Y-142054247D01*
X117089133Y-142054247D01*
X118941333Y-126245880D02*
X118608000Y-125769690D01*
X118369904Y-126245880D02*
X118369904Y-125245880D01*
X118750857Y-125245880D01*
X118846095Y-125293500D01*
X118893714Y-125341119D01*
X118941333Y-125436357D01*
X118941333Y-125579214D01*
X118893714Y-125674452D01*
X118846095Y-125722071D01*
X118750857Y-125769690D01*
X118369904Y-125769690D01*
X119798476Y-125245880D02*
X119608000Y-125245880D01*
X119512761Y-125293500D01*
X119465142Y-125341119D01*
X119369904Y-125483976D01*
X119322285Y-125674452D01*
X119322285Y-126055404D01*
X119369904Y-126150642D01*
X119417523Y-126198261D01*
X119512761Y-126245880D01*
X119703238Y-126245880D01*
X119798476Y-126198261D01*
X119846095Y-126150642D01*
X119893714Y-126055404D01*
X119893714Y-125817309D01*
X119846095Y-125722071D01*
X119798476Y-125674452D01*
X119703238Y-125626833D01*
X119512761Y-125626833D01*
X119417523Y-125674452D01*
X119369904Y-125722071D01*
X119322285Y-125817309D01*
X124048333Y-126182380D02*
X123715000Y-125706190D01*
X123476904Y-126182380D02*
X123476904Y-125182380D01*
X123857857Y-125182380D01*
X123953095Y-125230000D01*
X124000714Y-125277619D01*
X124048333Y-125372857D01*
X124048333Y-125515714D01*
X124000714Y-125610952D01*
X123953095Y-125658571D01*
X123857857Y-125706190D01*
X123476904Y-125706190D01*
X124381666Y-125182380D02*
X125048333Y-125182380D01*
X124619761Y-126182380D01*
X139279333Y-126245880D02*
X138946000Y-125769690D01*
X138707904Y-126245880D02*
X138707904Y-125245880D01*
X139088857Y-125245880D01*
X139184095Y-125293500D01*
X139231714Y-125341119D01*
X139279333Y-125436357D01*
X139279333Y-125579214D01*
X139231714Y-125674452D01*
X139184095Y-125722071D01*
X139088857Y-125769690D01*
X138707904Y-125769690D01*
X139850761Y-125674452D02*
X139755523Y-125626833D01*
X139707904Y-125579214D01*
X139660285Y-125483976D01*
X139660285Y-125436357D01*
X139707904Y-125341119D01*
X139755523Y-125293500D01*
X139850761Y-125245880D01*
X140041238Y-125245880D01*
X140136476Y-125293500D01*
X140184095Y-125341119D01*
X140231714Y-125436357D01*
X140231714Y-125483976D01*
X140184095Y-125579214D01*
X140136476Y-125626833D01*
X140041238Y-125674452D01*
X139850761Y-125674452D01*
X139755523Y-125722071D01*
X139707904Y-125769690D01*
X139660285Y-125864928D01*
X139660285Y-126055404D01*
X139707904Y-126150642D01*
X139755523Y-126198261D01*
X139850761Y-126245880D01*
X140041238Y-126245880D01*
X140136476Y-126198261D01*
X140184095Y-126150642D01*
X140231714Y-126055404D01*
X140231714Y-125864928D01*
X140184095Y-125769690D01*
X140136476Y-125722071D01*
X140041238Y-125674452D01*
X111578380Y-152017857D02*
X111102190Y-152351190D01*
X111578380Y-152589285D02*
X110578380Y-152589285D01*
X110578380Y-152208333D01*
X110626000Y-152113095D01*
X110673619Y-152065476D01*
X110768857Y-152017857D01*
X110911714Y-152017857D01*
X111006952Y-152065476D01*
X111054571Y-152113095D01*
X111102190Y-152208333D01*
X111102190Y-152589285D01*
X111578380Y-151065476D02*
X111578380Y-151636904D01*
X111578380Y-151351190D02*
X110578380Y-151351190D01*
X110721238Y-151446428D01*
X110816476Y-151541666D01*
X110864095Y-151636904D01*
X110578380Y-150446428D02*
X110578380Y-150351190D01*
X110626000Y-150255952D01*
X110673619Y-150208333D01*
X110768857Y-150160714D01*
X110959333Y-150113095D01*
X111197428Y-150113095D01*
X111387904Y-150160714D01*
X111483142Y-150208333D01*
X111530761Y-150255952D01*
X111578380Y-150351190D01*
X111578380Y-150446428D01*
X111530761Y-150541666D01*
X111483142Y-150589285D01*
X111387904Y-150636904D01*
X111197428Y-150684523D01*
X110959333Y-150684523D01*
X110768857Y-150636904D01*
X110673619Y-150589285D01*
X110626000Y-150541666D01*
X110578380Y-150446428D01*
X159250142Y-160726380D02*
X158916809Y-160250190D01*
X158678714Y-160726380D02*
X158678714Y-159726380D01*
X159059666Y-159726380D01*
X159154904Y-159774000D01*
X159202523Y-159821619D01*
X159250142Y-159916857D01*
X159250142Y-160059714D01*
X159202523Y-160154952D01*
X159154904Y-160202571D01*
X159059666Y-160250190D01*
X158678714Y-160250190D01*
X160202523Y-160726380D02*
X159631095Y-160726380D01*
X159916809Y-160726380D02*
X159916809Y-159726380D01*
X159821571Y-159869238D01*
X159726333Y-159964476D01*
X159631095Y-160012095D01*
X160583476Y-159821619D02*
X160631095Y-159774000D01*
X160726333Y-159726380D01*
X160964428Y-159726380D01*
X161059666Y-159774000D01*
X161107285Y-159821619D01*
X161154904Y-159916857D01*
X161154904Y-160012095D01*
X161107285Y-160154952D01*
X160535857Y-160726380D01*
X161154904Y-160726380D01*
X159250142Y-151455380D02*
X158916809Y-150979190D01*
X158678714Y-151455380D02*
X158678714Y-150455380D01*
X159059666Y-150455380D01*
X159154904Y-150503000D01*
X159202523Y-150550619D01*
X159250142Y-150645857D01*
X159250142Y-150788714D01*
X159202523Y-150883952D01*
X159154904Y-150931571D01*
X159059666Y-150979190D01*
X158678714Y-150979190D01*
X160202523Y-151455380D02*
X159631095Y-151455380D01*
X159916809Y-151455380D02*
X159916809Y-150455380D01*
X159821571Y-150598238D01*
X159726333Y-150693476D01*
X159631095Y-150741095D01*
X160535857Y-150455380D02*
X161154904Y-150455380D01*
X160821571Y-150836333D01*
X160964428Y-150836333D01*
X161059666Y-150883952D01*
X161107285Y-150931571D01*
X161154904Y-151026809D01*
X161154904Y-151264904D01*
X161107285Y-151360142D01*
X161059666Y-151407761D01*
X160964428Y-151455380D01*
X160678714Y-151455380D01*
X160583476Y-151407761D01*
X160535857Y-151360142D01*
X159250142Y-142438380D02*
X158916809Y-141962190D01*
X158678714Y-142438380D02*
X158678714Y-141438380D01*
X159059666Y-141438380D01*
X159154904Y-141486000D01*
X159202523Y-141533619D01*
X159250142Y-141628857D01*
X159250142Y-141771714D01*
X159202523Y-141866952D01*
X159154904Y-141914571D01*
X159059666Y-141962190D01*
X158678714Y-141962190D01*
X160202523Y-142438380D02*
X159631095Y-142438380D01*
X159916809Y-142438380D02*
X159916809Y-141438380D01*
X159821571Y-141581238D01*
X159726333Y-141676476D01*
X159631095Y-141724095D01*
X161059666Y-141771714D02*
X161059666Y-142438380D01*
X160821571Y-141390761D02*
X160583476Y-142105047D01*
X161202523Y-142105047D01*
D15*
X119957090Y-142824152D02*
X120361852Y-142824152D01*
X120409471Y-142800342D01*
X120433280Y-142776533D01*
X120457090Y-142728914D01*
X120457090Y-142633676D01*
X120433280Y-142586057D01*
X120409471Y-142562247D01*
X120361852Y-142538438D01*
X119957090Y-142538438D01*
X120457090Y-142038438D02*
X120457090Y-142324152D01*
X120457090Y-142181295D02*
X119957090Y-142181295D01*
X120028519Y-142228914D01*
X120076138Y-142276533D01*
X120099947Y-142324152D01*
D10*
X102131880Y-114652857D02*
X103131880Y-114319523D01*
X102131880Y-113986190D01*
X103131880Y-113652857D02*
X102131880Y-113652857D01*
X102846166Y-113319523D01*
X102131880Y-112986190D01*
X103131880Y-112986190D01*
X103131880Y-112367142D02*
X103084261Y-112462380D01*
X103036642Y-112510000D01*
X102941404Y-112557619D01*
X102655690Y-112557619D01*
X102560452Y-112510000D01*
X102512833Y-112462380D01*
X102465214Y-112367142D01*
X102465214Y-112224285D01*
X102512833Y-112129047D01*
X102560452Y-112081428D01*
X102655690Y-112033809D01*
X102941404Y-112033809D01*
X103036642Y-112081428D01*
X103084261Y-112129047D01*
X103131880Y-112224285D01*
X103131880Y-112367142D01*
X102465214Y-111748095D02*
X102465214Y-111367142D01*
X102131880Y-111605238D02*
X102989023Y-111605238D01*
X103084261Y-111557619D01*
X103131880Y-111462380D01*
X103131880Y-111367142D01*
X124102880Y-114647457D02*
X125102880Y-114314123D01*
X124102880Y-113980790D01*
X125102880Y-113647457D02*
X124102880Y-113647457D01*
X124817166Y-113314123D01*
X124102880Y-112980790D01*
X125102880Y-112980790D01*
X125102880Y-112361742D02*
X125055261Y-112456980D01*
X125007642Y-112504600D01*
X124912404Y-112552219D01*
X124626690Y-112552219D01*
X124531452Y-112504600D01*
X124483833Y-112456980D01*
X124436214Y-112361742D01*
X124436214Y-112218885D01*
X124483833Y-112123647D01*
X124531452Y-112076028D01*
X124626690Y-112028409D01*
X124912404Y-112028409D01*
X125007642Y-112076028D01*
X125055261Y-112123647D01*
X125102880Y-112218885D01*
X125102880Y-112361742D01*
X124436214Y-111742695D02*
X124436214Y-111361742D01*
X124102880Y-111599838D02*
X124960023Y-111599838D01*
X125055261Y-111552219D01*
X125102880Y-111456980D01*
X125102880Y-111361742D01*
X165120580Y-126158523D02*
X164120580Y-126158523D01*
X164120580Y-125920428D01*
X164168200Y-125777571D01*
X164263438Y-125682333D01*
X164358676Y-125634714D01*
X164549152Y-125587095D01*
X164692009Y-125587095D01*
X164882485Y-125634714D01*
X164977723Y-125682333D01*
X165072961Y-125777571D01*
X165120580Y-125920428D01*
X165120580Y-126158523D01*
X165120580Y-125158523D02*
X164453914Y-125158523D01*
X164120580Y-125158523D02*
X164168200Y-125206142D01*
X164215819Y-125158523D01*
X164168200Y-125110904D01*
X164120580Y-125158523D01*
X164215819Y-125158523D01*
X165120580Y-124682333D02*
X164453914Y-124682333D01*
X164644390Y-124682333D02*
X164549152Y-124634714D01*
X164501533Y-124587095D01*
X164453914Y-124491857D01*
X164453914Y-124396619D01*
X164180900Y-106370357D02*
X164133280Y-106465595D01*
X164133280Y-106608452D01*
X164180900Y-106751309D01*
X164276138Y-106846547D01*
X164371376Y-106894166D01*
X164561852Y-106941785D01*
X164704709Y-106941785D01*
X164895185Y-106894166D01*
X164990423Y-106846547D01*
X165085661Y-106751309D01*
X165133280Y-106608452D01*
X165133280Y-106513214D01*
X165085661Y-106370357D01*
X165038042Y-106322738D01*
X164704709Y-106322738D01*
X164704709Y-106513214D01*
X164466614Y-105894166D02*
X165133280Y-105894166D01*
X164561852Y-105894166D02*
X164514233Y-105846547D01*
X164466614Y-105751309D01*
X164466614Y-105608452D01*
X164514233Y-105513214D01*
X164609471Y-105465595D01*
X165133280Y-105465595D01*
X165133280Y-104560833D02*
X164133280Y-104560833D01*
X165085661Y-104560833D02*
X165133280Y-104656071D01*
X165133280Y-104846547D01*
X165085661Y-104941785D01*
X165038042Y-104989404D01*
X164942804Y-105037023D01*
X164657090Y-105037023D01*
X164561852Y-104989404D01*
X164514233Y-104941785D01*
X164466614Y-104846547D01*
X164466614Y-104656071D01*
X164514233Y-104560833D01*
X145883380Y-114710957D02*
X146883380Y-114377623D01*
X145883380Y-114044290D01*
X146883380Y-113710957D02*
X145883380Y-113710957D01*
X146597666Y-113377623D01*
X145883380Y-113044290D01*
X146883380Y-113044290D01*
X146883380Y-112425242D02*
X146835761Y-112520480D01*
X146788142Y-112568100D01*
X146692904Y-112615719D01*
X146407190Y-112615719D01*
X146311952Y-112568100D01*
X146264333Y-112520480D01*
X146216714Y-112425242D01*
X146216714Y-112282385D01*
X146264333Y-112187147D01*
X146311952Y-112139528D01*
X146407190Y-112091909D01*
X146692904Y-112091909D01*
X146788142Y-112139528D01*
X146835761Y-112187147D01*
X146883380Y-112282385D01*
X146883380Y-112425242D01*
X146216714Y-111806195D02*
X146216714Y-111425242D01*
X145883380Y-111663338D02*
X146740523Y-111663338D01*
X146835761Y-111615719D01*
X146883380Y-111520480D01*
X146883380Y-111425242D01*
X123639384Y-159938003D02*
X124287003Y-159938003D01*
X124363194Y-159899908D01*
X124401289Y-159861813D01*
X124439384Y-159785622D01*
X124439384Y-159633241D01*
X124401289Y-159557051D01*
X124363194Y-159518956D01*
X124287003Y-159480860D01*
X123639384Y-159480860D01*
X123639384Y-158757051D02*
X123639384Y-158909432D01*
X123677480Y-158985622D01*
X123715575Y-159023718D01*
X123829860Y-159099908D01*
X123982241Y-159138003D01*
X124287003Y-159138003D01*
X124363194Y-159099908D01*
X124401289Y-159061813D01*
X124439384Y-158985622D01*
X124439384Y-158833241D01*
X124401289Y-158757051D01*
X124363194Y-158718956D01*
X124287003Y-158680860D01*
X124096527Y-158680860D01*
X124020337Y-158718956D01*
X123982241Y-158757051D01*
X123944146Y-158833241D01*
X123944146Y-158985622D01*
X123982241Y-159061813D01*
X124020337Y-159099908D01*
X124096527Y-159138003D01*
X166882380Y-116657333D02*
X167596666Y-116657333D01*
X167739523Y-116704952D01*
X167834761Y-116800190D01*
X167882380Y-116943047D01*
X167882380Y-117038285D01*
X167882380Y-116181142D02*
X166882380Y-116181142D01*
X166882380Y-115800190D01*
X166930000Y-115704952D01*
X166977619Y-115657333D01*
X167072857Y-115609714D01*
X167215714Y-115609714D01*
X167310952Y-115657333D01*
X167358571Y-115704952D01*
X167406190Y-115800190D01*
X167406190Y-116181142D01*
X166882380Y-114752571D02*
X166882380Y-114943047D01*
X166930000Y-115038285D01*
X166977619Y-115085904D01*
X167120476Y-115181142D01*
X167310952Y-115228761D01*
X167691904Y-115228761D01*
X167787142Y-115181142D01*
X167834761Y-115133523D01*
X167882380Y-115038285D01*
X167882380Y-114847809D01*
X167834761Y-114752571D01*
X167787142Y-114704952D01*
X167691904Y-114657333D01*
X167453809Y-114657333D01*
X167358571Y-114704952D01*
X167310952Y-114752571D01*
X167263333Y-114847809D01*
X167263333Y-115038285D01*
X167310952Y-115133523D01*
X167358571Y-115181142D01*
X167453809Y-115228761D01*
X127554740Y-158071083D02*
X128269026Y-158071083D01*
X128411883Y-158118702D01*
X128507121Y-158213940D01*
X128554740Y-158356798D01*
X128554740Y-158452036D01*
X128554740Y-157071083D02*
X128554740Y-157642512D01*
X128554740Y-157356798D02*
X127554740Y-157356798D01*
X127697598Y-157452036D01*
X127792836Y-157547274D01*
X127840455Y-157642512D01*
X127554740Y-156737750D02*
X127554740Y-156118702D01*
X127935693Y-156452036D01*
X127935693Y-156309179D01*
X127983312Y-156213940D01*
X128030931Y-156166321D01*
X128126169Y-156118702D01*
X128364264Y-156118702D01*
X128459502Y-156166321D01*
X128507121Y-156213940D01*
X128554740Y-156309179D01*
X128554740Y-156594893D01*
X128507121Y-156690131D01*
X128459502Y-156737750D01*
X143900186Y-160242095D02*
X143900186Y-159765904D01*
X144185900Y-160337333D02*
X143185900Y-160004000D01*
X144185900Y-159670666D01*
X143185900Y-159337333D02*
X143995424Y-159337333D01*
X144090662Y-159289714D01*
X144138281Y-159242095D01*
X144185900Y-159146857D01*
X144185900Y-158956380D01*
X144138281Y-158861142D01*
X144090662Y-158813523D01*
X143995424Y-158765904D01*
X143185900Y-158765904D01*
X143185900Y-158384952D02*
X144185900Y-157718285D01*
X143185900Y-157718285D02*
X144185900Y-158384952D01*
M02*
